<?xml version="1.0" encoding="utf-8"?>
<!-- Generator: Adobe Illustrator 24.1.2, SVG Export Plug-In . SVG Version: 6.00 Build 0)  -->
<svg version="1.1" id="Layer_1" xmlns="http://www.w3.org/2000/svg" xmlns:xlink="http://www.w3.org/1999/xlink" x="0px" y="0px"
	 viewBox="0 0 144 216" style="enable-background:new 0 0 144 216;" xml:space="preserve">
<style type="text/css">
	.st0{fill:#BCCFD0;}
	.st1{fill:#9BAAA9;}
	.st2{fill:#879190;}
	.st3{fill:#CDCFCE;}
	.st4{fill:url(#XMLID_2_);}
	.st5{fill:url(#XMLID_3_);}
	.st6{fill:url(#XMLID_4_);}
	.st7{fill:#D3E6EA;}
	.st8{fill:#9ABDC1;}
	.st9{fill:#78A3A8;}
	.st10{fill:url(#XMLID_5_);}
	.st11{fill:url(#XMLID_6_);}
	.st12{fill:url(#XMLID_7_);}
	.st13{fill:url(#XMLID_8_);}
	.st14{fill:url(#XMLID_9_);}
	.st15{fill:url(#XMLID_10_);}
	.st16{fill:url(#XMLID_11_);}
	.st17{fill:url(#XMLID_12_);}
	.st18{fill:url(#XMLID_13_);}
	.st19{fill:url(#XMLID_14_);}
	.st20{fill:url(#XMLID_15_);}
	.st21{fill:url(#XMLID_16_);}
	.st22{fill:#365F87;}
	.st23{fill:#224969;}
	.st24{fill:#5A92B8;}
	.st25{fill:#FACEE1;}
	.st26{fill:#EE619A;}
	.st27{fill:#AB1F5C;}
	.st28{fill:#79B7DD;}
	.st29{fill:#E1EFF8;}
	.st30{opacity:0.79;fill:#FFFFFF;}
	.st31{opacity:0.47;fill:#FFFFFF;}
	.st32{fill:#97A8A9;}
	.st33{fill:#FFFFFF;}
	.st34{fill:#C8CCCD;}
	.st35{fill:#AED136;}
	.st36{fill:#7BC142;}
	.st37{fill:#518F40;}
</style>
<g id="XMLID_4718_">
	<polygon id="XMLID_4828_" class="st0" points="20.7,170.85 62.52,145.81 122.94,175.91 81.7,200.62 	"/>
	<polygon id="XMLID_4827_" class="st1" points="20.7,170.85 20.7,172.79 81.7,202.81 81.7,200.62 	"/>
	<polygon id="XMLID_4826_" class="st2" points="122.94,175.91 122.94,178.04 81.7,202.81 81.7,200.62 	"/>
	<polygon id="XMLID_4825_" class="st3" points="68.8,190.25 99,190.25 122.94,175.91 92.57,160.78 91.1,164.25 98.25,166.87 	"/>
	<linearGradient id="XMLID_2_" gradientUnits="userSpaceOnUse" x1="69.1876" y1="177.0234" x2="70.9678" y2="-42.51">
		<stop  offset="0" style="stop-color:#21738D"/>
		<stop  offset="1" style="stop-color:#A2D3E2"/>
	</linearGradient>
	<path id="XMLID_4824_" class="st4" d="M40.59,19.46c0,0,38.64,14.8,48.36,38.71c9.69,23.82,9.82,33.86,10.55,50.46
		c0.73,16.6-3.96,50.91-3.96,50.91l-27.49,16.23c0,0-21.34-116.43-20.58-118.36C48.23,55.48,40.59,19.46,40.59,19.46z"/>
	<linearGradient id="XMLID_3_" gradientUnits="userSpaceOnUse" x1="76.0793" y1="-10.3787" x2="52.1156" y2="76.864">
		<stop  offset="0" style="stop-color:#21738D"/>
		<stop  offset="1" style="stop-color:#A2D3E2"/>
	</linearGradient>
	<path id="XMLID_4823_" class="st5" d="M40.59,19.46v-6.31c0,0,11.78,13.46,15.01,20.58c3.22,7.11,8.87,19.03,10.33,27.19
		c1.46,8.16,3.58,16.58,4.16,26.85c0.58,10.27,0.52,27.45,0.52,27.45L40.59,19.46z"/>
	<linearGradient id="XMLID_4_" gradientUnits="userSpaceOnUse" x1="54.2619" y1="121.3307" x2="44.9999" y2="437.172">
		<stop  offset="0" style="stop-color:#21738D"/>
		<stop  offset="1" style="stop-color:#A2D3E2"/>
	</linearGradient>
	<path id="XMLID_4822_" class="st6" d="M40.59,162.35V19.46c0,0,12.87,12.13,21.85,36.98c10.52,29.09,7.87,84.89,7.87,84.89
		s-0.44,17.05-1.35,25.75c-0.91,8.7-0.91,8.7-0.91,8.7L40.59,162.35z"/>
	<g id="XMLID_4816_">
		<g id="XMLID_4817_">
			<polygon id="XMLID_4821_" class="st7" points="40.59,142.71 38.06,144.31 61.05,155.39 62.51,154.51 63.47,155.06 61.02,156.57 
				36.02,144.42 40.59,141.55 			"/>
			<polygon id="XMLID_4820_" class="st8" points="36.02,149.41 36.02,144.42 61.02,156.57 61.02,161.47 			"/>
			<polygon id="XMLID_4819_" class="st9" points="63.47,155.06 63.47,159.98 61.02,161.47 61.02,156.57 			"/>
			<polygon id="XMLID_4818_" class="st9" points="38.06,144.31 40.59,142.71 40.59,145.53 			"/>
		</g>
	</g>
	<g id="XMLID_4810_">
		<g id="XMLID_4811_">
			<polygon id="XMLID_4815_" class="st7" points="40.59,134.38 38.06,135.99 61.05,147.06 62.51,146.18 63.47,146.73 61.02,148.24 
				36.02,136.1 40.59,133.22 			"/>
			<polygon id="XMLID_4814_" class="st8" points="36.02,141.08 36.02,136.1 61.02,148.24 61.02,153.14 			"/>
			<polygon id="XMLID_4813_" class="st9" points="63.47,146.73 63.47,151.65 61.02,153.14 61.02,148.24 			"/>
			<polygon id="XMLID_4812_" class="st9" points="38.06,135.99 40.59,134.38 40.59,137.2 			"/>
		</g>
	</g>
	<g id="XMLID_4804_">
		<g id="XMLID_4805_">
			<polygon id="XMLID_4809_" class="st7" points="40.59,125.71 38.06,127.32 61.05,138.39 62.51,137.51 63.47,138.06 61.02,139.57 
				36.02,127.43 40.59,124.55 			"/>
			<polygon id="XMLID_4808_" class="st8" points="36.02,132.41 36.02,127.43 61.02,139.57 61.02,144.47 			"/>
			<polygon id="XMLID_4807_" class="st9" points="63.47,138.06 63.47,142.98 61.02,144.47 61.02,139.57 			"/>
			<polygon id="XMLID_4806_" class="st9" points="38.06,127.32 40.59,125.71 40.59,128.54 			"/>
		</g>
	</g>
	<g id="XMLID_4798_">
		<g id="XMLID_4799_">
			<polygon id="XMLID_4803_" class="st7" points="40.59,117.19 38.06,118.79 61.05,129.87 62.51,128.99 63.47,129.54 61.02,131.05 
				36.02,118.91 40.59,116.03 			"/>
			<polygon id="XMLID_4802_" class="st8" points="36.02,123.89 36.02,118.91 61.02,131.05 61.02,135.95 			"/>
			<polygon id="XMLID_4801_" class="st9" points="63.47,129.54 63.47,134.46 61.02,135.95 61.02,131.05 			"/>
			<polygon id="XMLID_4800_" class="st9" points="38.06,118.79 40.59,117.19 40.59,120.01 			"/>
		</g>
	</g>
	<g id="XMLID_4792_">
		<g id="XMLID_4793_">
			<polygon id="XMLID_4797_" class="st7" points="40.59,108.86 38.06,110.47 61.05,121.55 62.51,120.66 63.47,121.22 61.02,122.72 
				36.02,110.58 40.59,107.71 			"/>
			<polygon id="XMLID_4796_" class="st8" points="36.02,115.56 36.02,110.58 61.02,122.72 61.02,127.62 			"/>
			<polygon id="XMLID_4795_" class="st9" points="63.47,121.22 63.47,126.13 61.02,127.62 61.02,122.72 			"/>
			<polygon id="XMLID_4794_" class="st9" points="38.06,110.47 40.59,108.86 40.59,111.69 			"/>
		</g>
	</g>
	<g id="XMLID_4786_">
		<g id="XMLID_4787_">
			<polygon id="XMLID_4791_" class="st7" points="40.59,100.32 38.06,101.93 61.05,113.01 62.51,112.12 63.47,112.68 61.02,114.18 
				36.02,102.04 40.59,99.17 			"/>
			<polygon id="XMLID_4790_" class="st8" points="36.02,107.02 36.02,102.04 61.02,114.18 61.02,119.08 			"/>
			<polygon id="XMLID_4789_" class="st9" points="63.47,112.68 63.47,117.59 61.02,119.08 61.02,114.18 			"/>
			<polygon id="XMLID_4788_" class="st9" points="38.06,101.93 40.59,100.32 40.59,103.15 			"/>
		</g>
	</g>
	<g id="XMLID_4780_">
		<g id="XMLID_4781_">
			<polygon id="XMLID_4785_" class="st7" points="40.59,91.8 38.06,93.41 61.05,104.49 62.51,103.6 63.47,104.15 61.02,105.66 
				36.02,93.52 40.59,90.65 			"/>
			<polygon id="XMLID_4784_" class="st8" points="36.02,98.5 36.02,93.52 61.02,105.66 61.02,110.56 			"/>
			<polygon id="XMLID_4783_" class="st9" points="63.47,104.15 63.47,109.07 61.02,110.56 61.02,105.66 			"/>
			<polygon id="XMLID_4782_" class="st9" points="38.06,93.41 40.59,91.8 40.59,94.63 			"/>
		</g>
	</g>
	<g id="XMLID_4775_">
		<polygon id="XMLID_4779_" class="st7" points="40.59,83.48 38.06,85.08 61.05,96.16 62.51,95.28 63.47,95.83 61.02,97.33 
			36.02,85.19 40.59,82.32 		"/>
		<polygon id="XMLID_4778_" class="st8" points="36.02,90.18 36.02,85.19 61.02,97.33 61.02,102.23 		"/>
		<polygon id="XMLID_4777_" class="st9" points="63.47,95.83 63.47,100.74 61.02,102.23 61.02,97.33 		"/>
		<polygon id="XMLID_4776_" class="st9" points="38.06,85.08 40.59,83.48 40.59,86.3 		"/>
	</g>
	<g id="XMLID_4769_">
		<g id="XMLID_4770_">
			<polygon id="XMLID_4774_" class="st7" points="40.59,151.23 38.06,152.83 61.05,163.91 62.51,163.03 63.47,163.58 61.02,165.09 
				36.02,152.94 40.59,150.07 			"/>
			<polygon id="XMLID_4773_" class="st8" points="36.02,157.93 36.02,152.94 61.02,165.09 61.02,169.99 			"/>
			<polygon id="XMLID_4772_" class="st9" points="63.47,163.58 63.47,168.5 61.02,169.99 61.02,165.09 			"/>
			<polygon id="XMLID_4771_" class="st9" points="38.06,152.83 40.59,151.23 40.59,154.05 			"/>
		</g>
	</g>
	<linearGradient id="XMLID_5_" gradientUnits="userSpaceOnUse" x1="87.6917" y1="-8.5523" x2="64.0295" y2="82.6492">
		<stop  offset="0" style="stop-color:#21738D"/>
		<stop  offset="1" style="stop-color:#A2D3E2"/>
	</linearGradient>
	<path id="XMLID_4768_" class="st10" d="M40.59,13.15c0,0,12.6,5.64,20.43,11.48c7.82,5.83,16.57,11.84,21.85,19.49
		c5.28,7.65,10.38,18.22,12.57,27.06c2.19,8.84,2.66,10.52,3.28,18.66c0.86,11.31,0.86,15.64,0.86,15.64l-4.14-0.87l-6.08,5.68
		l-0.66-7.13l-11.25,12.73l-6.84,3.22L67.9,71.17l-8.26-28.46l-14.2-23.75L40.59,13.15z"/>
	<linearGradient id="XMLID_6_" gradientUnits="userSpaceOnUse" x1="86.8607" y1="102.5445" x2="85.3709" y2="116.9578">
		<stop  offset="0" style="stop-color:#21738D"/>
		<stop  offset="1" style="stop-color:#A2D3E2"/>
	</linearGradient>
	<path id="XMLID_4767_" class="st11" d="M70.6,124.42c0,0.04,28.98-12.73,28.98-12.73l-0.03,3.53l-28.94,13.32L70.6,124.42z"/>
	<linearGradient id="XMLID_7_" gradientUnits="userSpaceOnUse" x1="83.2471" y1="114.3887" x2="82.1627" y2="124.8801">
		<stop  offset="0" style="stop-color:#21738D"/>
		<stop  offset="1" style="stop-color:#A2D3E2"/>
	</linearGradient>
	<path id="XMLID_4766_" class="st12" d="M70.57,131.05c0.68-0.58,22.68-9.93,22.68-9.93v2.42l-22.65,9.68L70.57,131.05z"/>
	<g id="XMLID_4756_">
		<linearGradient id="XMLID_8_" gradientUnits="userSpaceOnUse" x1="85.8761" y1="32.8895" x2="51.6274" y2="108.3095">
			<stop  offset="0" style="stop-color:#21738D"/>
			<stop  offset="1" style="stop-color:#A2D3E2"/>
		</linearGradient>
		<polygon id="XMLID_4765_" class="st13" points="61.02,93.44 61.02,88.93 58.32,87.77 58.32,92.29 		"/>
		<linearGradient id="XMLID_9_" gradientUnits="userSpaceOnUse" x1="78.1071" y1="29.3615" x2="43.8584" y2="104.7816">
			<stop  offset="0" style="stop-color:#21738D"/>
			<stop  offset="1" style="stop-color:#A2D3E2"/>
		</linearGradient>
		<polygon id="XMLID_4764_" class="st14" points="53.28,89.84 53.28,85.33 50.58,84.17 50.58,88.7 		"/>
		<linearGradient id="XMLID_10_" gradientUnits="userSpaceOnUse" x1="73.6834" y1="27.3528" x2="39.4347" y2="102.7728">
			<stop  offset="0" style="stop-color:#21738D"/>
			<stop  offset="1" style="stop-color:#A2D3E2"/>
		</linearGradient>
		<polygon id="XMLID_4763_" class="st15" points="53.28,78.09 53.28,73.58 50.58,72.42 50.58,76.95 		"/>
		<linearGradient id="XMLID_11_" gradientUnits="userSpaceOnUse" x1="73.9666" y1="27.4819" x2="39.7183" y2="102.9011">
			<stop  offset="0" style="stop-color:#21738D"/>
			<stop  offset="1" style="stop-color:#A2D3E2"/>
		</linearGradient>
		<polygon id="XMLID_4762_" class="st16" points="49.24,87.74 49.24,83.23 46.54,82.07 46.54,86.6 		"/>
		<linearGradient id="XMLID_12_" gradientUnits="userSpaceOnUse" x1="71.7335" y1="26.4678" x2="37.4851" y2="101.8871">
			<stop  offset="0" style="stop-color:#21738D"/>
			<stop  offset="1" style="stop-color:#A2D3E2"/>
		</linearGradient>
		<polygon id="XMLID_4761_" class="st17" points="49.24,81.81 49.24,77.3 46.54,76.14 46.54,80.67 		"/>
		<linearGradient id="XMLID_13_" gradientUnits="userSpaceOnUse" x1="69.9347" y1="25.6505" x2="35.686" y2="101.0705">
			<stop  offset="0" style="stop-color:#21738D"/>
			<stop  offset="1" style="stop-color:#A2D3E2"/>
		</linearGradient>
		<polygon id="XMLID_4760_" class="st18" points="45.29,85.74 45.29,81.23 42.59,80.07 42.59,84.6 		"/>
		<linearGradient id="XMLID_14_" gradientUnits="userSpaceOnUse" x1="67.7016" y1="24.6365" x2="33.4529" y2="100.0565">
			<stop  offset="0" style="stop-color:#21738D"/>
			<stop  offset="1" style="stop-color:#A2D3E2"/>
		</linearGradient>
		<polygon id="XMLID_4759_" class="st19" points="45.29,79.81 45.29,75.3 42.59,74.14 42.59,78.67 		"/>
		<linearGradient id="XMLID_15_" gradientUnits="userSpaceOnUse" x1="63.7901" y1="22.8602" x2="29.5414" y2="98.2802">
			<stop  offset="0" style="stop-color:#21738D"/>
			<stop  offset="1" style="stop-color:#A2D3E2"/>
		</linearGradient>
		<polygon id="XMLID_4758_" class="st20" points="45.29,69.42 45.29,64.91 42.59,63.75 42.59,68.28 		"/>
		<linearGradient id="XMLID_16_" gradientUnits="userSpaceOnUse" x1="72.4446" y1="26.7907" x2="38.1963" y2="102.21">
			<stop  offset="0" style="stop-color:#21738D"/>
			<stop  offset="1" style="stop-color:#A2D3E2"/>
		</linearGradient>
		<polygon id="XMLID_4757_" class="st21" points="58.3,63.75 58.3,59.24 55.6,58.08 55.6,62.61 		"/>
	</g>
	<polygon id="XMLID_4755_" class="st22" points="40.68,161.26 40.68,160.59 68.9,174.12 68.9,174.93 	"/>
	<polygon id="XMLID_4754_" class="st23" points="95.94,157.27 68.9,174.12 68.9,174.93 95.94,158.07 95.94,157.27 	"/>
	<polygon id="XMLID_4753_" class="st22" points="68.82,189.78 68.82,177.63 99.37,158.79 99.37,171.4 	"/>
	<polygon id="XMLID_4752_" class="st24" points="68.82,177.63 37.38,162.44 37.38,173.83 68.82,189.78 	"/>
	<polygon id="XMLID_4751_" class="st25" points="37.38,168.91 33.2,171.31 68.8,189.38 103.98,168.19 99.37,166.19 99.37,168.51 
		68.81,187.15 37.38,171.19 	"/>
	<polygon id="XMLID_4750_" class="st26" points="33.2,171.26 33.21,172.16 68.8,190.25 68.8,189.38 	"/>
	<polygon id="XMLID_4749_" class="st27" points="103.98,168.06 68.8,189.38 68.8,190.25 103.98,168.92 	"/>
	<polygon id="XMLID_4748_" class="st24" points="99.37,166.91 68.83,185.23 68.82,180.06 99.37,161.68 	"/>
	<polygon id="XMLID_4747_" class="st28" points="37.38,165.06 37.38,169.43 68.83,185.23 68.82,180.06 	"/>
	<polygon id="XMLID_4746_" class="st28" points="68.83,185.23 99.37,166.91 98.28,166.45 68.8,184.13 	"/>
	<polygon id="XMLID_4745_" class="st29" points="68.83,185.23 68.8,184.13 38.14,168.97 37.38,169.43 	"/>
	<polygon id="XMLID_4744_" class="st30" points="65.79,179.05 65.79,183.5 67.92,184.57 67.91,180.06 	"/>
	<path id="XMLID_4743_" class="st30" d="M37.99,165.67l0,3.86c0,0,1.76,0.88,1.7,0.85c-0.06-0.03,0-3.9,0-3.9L37.99,165.67z"/>
	<polygon id="XMLID_4742_" class="st31" points="69.74,184.48 69.73,180.06 71.82,178.82 71.81,183.25 	"/>
	<polygon id="XMLID_4741_" class="st31" points="96.38,168.37 96.37,163.7 98.46,162.46 98.45,167.14 	"/>
	<polygon id="XMLID_4740_" class="st26" points="68.81,187.15 72.5,187.15 103.98,168.06 99.37,166.19 99.37,168.51 	"/>
	<polygon id="XMLID_4739_" class="st26" points="37.38,162.44 40.61,160.24 40.61,161.22 68.83,174.9 68.82,177.63 	"/>
	<polygon id="XMLID_4738_" class="st27" points="95.88,156.85 99.37,158.79 68.82,177.63 68.83,174.9 95.88,158.03 95.88,156.85 	
		"/>
	<polygon id="XMLID_4737_" class="st24" points="42.2,172.14 42.2,167 43.27,167.48 43.27,172.7 	"/>
	<polygon id="XMLID_4736_" class="st24" points="47.57,174.99 47.57,169.85 48.64,170.33 48.64,175.55 	"/>
	<polygon id="XMLID_4735_" class="st24" points="56.86,179.43 56.86,174.29 57.93,174.78 57.93,179.99 	"/>
	<polygon id="XMLID_4734_" class="st24" points="62.23,181.98 62.23,176.84 63.3,177.32 63.3,182.54 	"/>
	<polygon id="XMLID_4733_" class="st22" points="74.19,182.26 74.19,176.27 75.32,175.85 75.26,181.96 	"/>
	<polygon id="XMLID_4732_" class="st22" points="79.61,179.05 79.61,173.05 80.74,172.64 80.68,178.75 	"/>
	<polygon id="XMLID_4731_" class="st22" points="88.03,174.05 88.03,168.06 89.17,167.64 89.1,173.76 	"/>
	<polygon id="XMLID_4730_" class="st22" points="93.45,170.84 93.45,164.85 94.58,164.43 94.52,170.54 	"/>
	<polygon id="XMLID_4729_" class="st32" points="108.46,181 111.38,180.98 119.13,176.13 116.57,174.77 116.57,176.11 	"/>
	<g id="XMLID_4720_">
		<polygon id="XMLID_4728_" class="st33" points="106.74,169.83 98.88,174.65 106.91,178.79 115.02,173.9 106.74,169.83 		"/>
		<polygon id="XMLID_4727_" class="st34" points="98.88,175.98 98.88,174.65 106.91,178.79 106.91,180.13 		"/>
		<polygon id="XMLID_4726_" class="st35" points="106.88,167.64 102.87,170.11 105.92,173.14 107.17,173.33 110.95,170.49 
			110.95,169.73 		"/>
		<path id="XMLID_4725_" class="st36" d="M107.17,176.55v-4.32l-0.93-0.42l-0.76,0.18l-0.42-0.75l-2.18-1.12v2.53
			c0,0,0.16,0.29,0.42,0.42c0.26,0.13,0.05,0.53,0.05,0.53l-0.46,0.43v0.42L107.17,176.55z"/>
		<path id="XMLID_4724_" class="st37" d="M110.95,174.29l-3.78,2.26v-4.32l1.57-0.93c0,0,0.51-0.34,0.67-0.12
			c0.16,0.22,0.45-0.72,0.45-0.72l1.09-0.74v1.99c0,0-0.16-0.09-0.22,0.29c-0.06,0.38,0.09,0.82,0.09,0.82l0.14,0.32V174.29z"/>
		<path id="XMLID_4723_" class="st35" d="M103.65,168.77l1.76-1.12c0,0,0.19-0.13,0.25-0.35c0.06-0.22,0.32-0.51,0.32-0.51
			l0.19,0.32l0.29-0.32h0.45l1.19,0.54c0,0,0.1,0.26,0.29,0.45c0.19,0.19,0.33-0.13,0.33-0.13l1.55,0.86l-1.34,1.41l-1.22,0.74
			h-1.25l-2.4-1.35L103.65,168.77z"/>
		<polygon id="XMLID_4722_" class="st36" points="103.65,169.63 107.17,171.33 107.17,170.49 103.65,168.77 		"/>
		<polygon id="XMLID_4721_" class="st37" points="110.27,169.38 107.17,171.33 107.17,170.49 108.09,169.92 108.45,170.05 
			108.86,169.38 110.27,168.51 		"/>
	</g>
	<polygon id="XMLID_4719_" class="st2" points="106.91,178.79 115.02,173.9 115.02,175.27 106.91,180.13 	"/>
</g>
</svg>
