<?xml version="1.0" encoding="utf-8"?>
<!-- Generator: Adobe Illustrator 24.1.2, SVG Export Plug-In . SVG Version: 6.00 Build 0)  -->
<svg version="1.1" id="Layer_1" xmlns="http://www.w3.org/2000/svg" xmlns:xlink="http://www.w3.org/1999/xlink" x="0px" y="0px"
	 viewBox="0 0 144 216" style="enable-background:new 0 0 144 216;" xml:space="preserve">
<style type="text/css">
	.st0{fill:#BCCFD0;}
	.st1{fill:#9BAAA9;}
	.st2{fill:#879190;}
	.st3{fill:#A5B7B8;}
	.st4{fill:#EACAB6;}
	.st5{fill:#BDE5F1;}
	.st6{fill:#90CEE4;}
	.st7{fill:#749CB2;}
	.st8{fill:#4F6E82;}
	.st9{fill:#C5DDE8;}
	.st10{fill:#5CA8B5;}
	.st11{fill:#90D5DA;}
	.st12{fill:#256C7D;}
	.st13{fill:#A3C3CE;}
	.st14{fill:#567889;}
	.st15{fill:#A09B93;}
	.st16{fill:#E9E8E8;}
	.st17{fill:#FFFFFF;}
	.st18{fill:#D8D9D8;}
	.st19{fill:#97A8A9;}
</style>
<g id="XMLID_4829_">
	<polygon id="XMLID_4985_" class="st0" points="43.31,195.04 67.56,180.7 100.9,197.16 77.16,211.37 	"/>
	<polygon id="XMLID_4984_" class="st1" points="43.31,195.04 43.31,196.5 77.16,213.02 77.16,211.37 	"/>
	<polygon id="XMLID_4983_" class="st2" points="100.9,197.16 100.9,198.87 77.16,213.02 77.16,211.37 	"/>
	<polygon id="XMLID_4982_" class="st3" points="67.83,204.24 89.03,204.37 100.9,197.16 84.75,188.95 84.75,191.77 86.3,193.1 	"/>
	<polygon id="XMLID_4980_" class="st4" points="67.83,163.62 47.45,153.52 66.72,141.78 87.35,151.88 	"/>
	<polygon id="XMLID_4981_" class="st5" points="67.83,204.24 47.45,194.26 47.45,153.52 67.83,163.62 	"/>
	<polygon id="XMLID_4979_" class="st6" points="67.83,204.24 87.35,192.51 87.35,151.88 67.83,163.62 	"/>
	<polygon id="XMLID_4978_" class="st7" points="67.83,163.62 67.83,159.45 47.45,149.28 47.45,153.52 	"/>
	<polygon id="XMLID_4977_" class="st8" points="87.35,151.88 87.35,147.6 67.83,159.45 67.83,163.62 	"/>
	<path id="XMLID_4975_" class="st9" d="M66.69,137.51l-19.24,11.77l20.38,10.16l19.52-11.85L66.69,137.51z M67.61,157.77
		l-17.32-8.79l16.41-10.08l17.84,8.78L67.61,157.77z"/>
	<polygon id="XMLID_4973_" class="st8" points="54.11,150.89 66.68,143.27 66.69,138.9 50.29,148.99 	"/>
	<polygon id="XMLID_4972_" class="st7" points="66.69,138.9 66.68,143.27 80.51,150.08 84.53,147.68 	"/>
	<polygon id="XMLID_4970_" class="st10" points="53.76,194.02 53.76,160.1 49.64,158.1 49.64,192.05 	"/>
	<polygon id="XMLID_4971_" class="st11" points="49.64,192.1 50.27,191.63 53.76,193.25 53.76,194.06 	"/>
	<polygon id="XMLID_4969_" class="st12" points="49.64,158.1 49.64,192.1 50.27,191.63 50.28,158.47 	"/>
	<polygon id="XMLID_4968_" class="st10" points="59.53,196.86 59.53,162.99 55.41,160.99 55.41,194.9 	"/>
	<polygon id="XMLID_4967_" class="st11" points="55.41,194.99 56.05,194.52 59.53,196.15 59.53,196.95 	"/>
	<polygon id="XMLID_4966_" class="st12" points="55.41,160.99 55.41,194.99 56.05,194.52 56.05,161.37 	"/>
	<polygon id="XMLID_4965_" class="st10" points="65.31,199.59 65.31,165.63 61.19,163.63 61.19,197.63 	"/>
	<polygon id="XMLID_4964_" class="st11" points="61.19,197.63 61.82,197.16 65.31,198.78 65.31,199.59 	"/>
	<polygon id="XMLID_4963_" class="st12" points="61.19,163.63 61.19,197.63 61.83,197.16 61.83,164 	"/>
	<polygon id="XMLID_4962_" class="st10" points="74.09,163.55 74.09,196.89 70.12,199.28 70.12,166.04 	"/>
	<polygon id="XMLID_4961_" class="st12" points="74.09,196.89 73.31,196.47 73.31,164.04 74.09,163.55 	"/>
	<polygon id="XMLID_4960_" class="st11" points="70.15,199.45 74.13,197.06 73.35,196.64 70.15,198.5 	"/>
	<polygon id="XMLID_4959_" class="st10" points="79.83,160.17 79.87,193.28 75.9,195.68 75.86,162.66 	"/>
	<polygon id="XMLID_4958_" class="st12" points="79.83,193.51 79.05,193.08 79.05,160.66 79.83,160.17 	"/>
	<polygon id="XMLID_4957_" class="st11" points="75.9,196.07 79.87,193.68 79.09,193.25 75.9,195.12 	"/>
	<polygon id="XMLID_4956_" class="st10" points="85.5,156.7 85.5,190.16 81.53,192.56 81.53,159.19 	"/>
	<polygon id="XMLID_4955_" class="st12" points="85.5,190.04 84.72,189.62 84.72,157.19 85.5,156.7 	"/>
	<polygon id="XMLID_4954_" class="st11" points="81.56,192.6 85.54,190.21 84.76,189.79 81.56,191.65 	"/>
	<polygon id="XMLID_4953_" class="st13" points="51.67,149.68 66.68,140.56 83,148.6 67.61,157.77 	"/>
	<polygon id="XMLID_4952_" class="st7" points="51.67,149.68 53.76,149.68 67.83,141.13 66.68,140.56 	"/>
	<polygon id="XMLID_4951_" class="st14" points="66.69,138.9 66.68,140.56 67.83,141.13 67.83,139.46 	"/>
	<polygon id="XMLID_4950_" class="st4" points="67.89,118.82 47.51,108.73 66.78,96.98 87.41,107.08 	"/>
	<polygon id="XMLID_4949_" class="st5" points="67.89,159.45 47.51,149.47 47.51,108.73 67.89,118.82 	"/>
	<polygon id="XMLID_4948_" class="st6" points="67.89,159.45 87.41,147.71 87.41,107.08 67.89,118.82 	"/>
	<polygon id="XMLID_4947_" class="st7" points="67.89,118.82 67.89,114.65 47.51,104.49 47.51,108.73 	"/>
	<polygon id="XMLID_4946_" class="st8" points="87.41,107.08 87.41,102.8 67.89,114.65 67.89,118.82 	"/>
	<path id="XMLID_4943_" class="st9" d="M66.76,92.71l-19.24,11.77l20.38,10.16l19.52-11.85L66.76,92.71z M67.67,112.97l-17.32-8.79
		L66.76,94.1l17.84,8.78L67.67,112.97z"/>
	<polygon id="XMLID_4942_" class="st8" points="54.17,106.1 66.74,98.47 66.76,94.1 50.35,104.19 	"/>
	<polygon id="XMLID_4941_" class="st7" points="66.76,94.1 66.74,98.47 80.57,105.28 84.6,102.88 	"/>
	<polygon id="XMLID_4940_" class="st10" points="53.82,149.22 53.82,115.3 49.7,113.3 49.7,147.26 	"/>
	<polygon id="XMLID_4939_" class="st11" points="49.7,147.3 50.34,146.83 53.82,148.46 53.82,149.27 	"/>
	<polygon id="XMLID_4938_" class="st12" points="49.7,113.3 49.7,147.3 50.34,146.83 50.34,113.68 	"/>
	<polygon id="XMLID_4937_" class="st10" points="59.59,152.07 59.59,118.19 55.47,116.2 55.47,150.1 	"/>
	<polygon id="XMLID_4936_" class="st11" points="55.47,150.19 56.11,149.73 59.59,151.35 59.59,152.16 	"/>
	<polygon id="XMLID_4935_" class="st12" points="55.47,116.2 55.47,150.19 56.11,149.73 56.11,116.57 	"/>
	<polygon id="XMLID_4934_" class="st10" points="65.37,154.79 65.37,120.83 61.25,118.83 61.25,152.83 	"/>
	<polygon id="XMLID_4933_" class="st11" points="61.25,152.83 61.88,152.36 65.37,153.99 65.37,154.79 	"/>
	<polygon id="XMLID_4932_" class="st12" points="61.25,118.83 61.25,152.83 61.89,152.36 61.89,119.21 	"/>
	<polygon id="XMLID_4931_" class="st10" points="74.15,118.75 74.15,152.09 70.18,154.49 70.18,121.25 	"/>
	<polygon id="XMLID_4930_" class="st12" points="74.15,152.09 73.37,151.67 73.37,119.24 74.15,118.75 	"/>
	<polygon id="XMLID_4929_" class="st11" points="70.22,154.66 74.19,152.26 73.41,151.84 70.22,153.7 	"/>
	<polygon id="XMLID_4928_" class="st10" points="79.9,115.37 79.93,148.49 75.96,150.88 75.92,117.86 	"/>
	<polygon id="XMLID_4927_" class="st12" points="79.9,148.71 79.11,148.29 79.11,115.86 79.9,115.37 	"/>
	<polygon id="XMLID_4926_" class="st11" points="75.96,151.27 79.93,148.88 79.15,148.46 75.96,150.32 	"/>
	<polygon id="XMLID_4925_" class="st10" points="85.56,111.9 85.56,145.37 81.59,147.76 81.59,114.4 	"/>
	<polygon id="XMLID_4924_" class="st12" points="85.56,145.24 84.78,144.82 84.78,112.39 85.56,111.9 	"/>
	<polygon id="XMLID_4923_" class="st11" points="81.62,147.8 85.6,145.41 84.82,144.99 81.62,146.85 	"/>
	<polygon id="XMLID_4922_" class="st13" points="51.74,104.88 66.74,95.76 83.06,103.8 67.67,112.97 	"/>
	<polygon id="XMLID_4921_" class="st7" points="51.74,104.88 53.82,104.88 67.89,96.33 66.74,95.76 	"/>
	<polygon id="XMLID_4920_" class="st14" points="66.76,94.1 66.74,95.76 67.89,96.33 67.89,94.66 	"/>
	<polygon id="XMLID_4919_" class="st4" points="67.92,74.01 47.55,63.92 66.82,52.17 87.45,62.27 	"/>
	<polygon id="XMLID_4918_" class="st5" points="67.92,114.64 47.55,104.65 47.55,63.92 67.92,74.01 	"/>
	<polygon id="XMLID_4917_" class="st6" points="67.92,114.64 87.45,102.9 87.45,62.27 67.92,74.01 	"/>
	<polygon id="XMLID_4916_" class="st7" points="67.92,74.01 67.92,69.84 47.55,59.68 47.55,63.92 	"/>
	<polygon id="XMLID_4915_" class="st8" points="87.45,62.27 87.45,57.99 67.92,69.84 67.92,74.01 	"/>
	<path id="XMLID_4912_" class="st9" d="M66.79,47.9L47.55,59.68l20.38,10.16l19.52-11.85L66.79,47.9z M67.71,68.16l-17.32-8.79
		l16.41-10.08l17.84,8.78L67.71,68.16z"/>
	<polygon id="XMLID_4911_" class="st8" points="54.2,61.28 66.77,53.66 66.79,49.29 50.38,59.38 	"/>
	<polygon id="XMLID_4910_" class="st7" points="66.79,49.29 66.77,53.66 80.61,60.47 84.63,58.07 	"/>
	<polygon id="XMLID_4909_" class="st10" points="53.86,104.41 53.86,70.49 49.74,68.49 49.74,102.45 	"/>
	<polygon id="XMLID_4908_" class="st12" points="49.74,68.49 49.74,102.49 50.37,102.02 50.37,68.87 	"/>
	<polygon id="XMLID_4907_" class="st10" points="59.63,107.26 59.63,73.38 55.51,71.39 55.51,105.29 	"/>
	<polygon id="XMLID_4906_" class="st12" points="55.51,71.39 55.51,105.38 56.14,104.92 56.15,71.76 	"/>
	<polygon id="XMLID_4905_" class="st10" points="65.41,109.98 65.41,76.02 61.29,74.02 61.29,108.02 	"/>
	<polygon id="XMLID_4904_" class="st12" points="61.29,74.02 61.29,108.02 61.92,107.55 61.92,74.4 	"/>
	<polygon id="XMLID_4903_" class="st10" points="74.19,73.94 74.19,107.28 70.22,109.67 70.22,76.44 	"/>
	<polygon id="XMLID_4902_" class="st12" points="74.19,107.28 73.41,106.86 73.41,74.43 74.19,73.94 	"/>
	<polygon id="XMLID_4901_" class="st10" points="79.93,70.56 79.97,103.68 75.99,106.07 75.96,73.05 	"/>
	<polygon id="XMLID_4900_" class="st12" points="79.93,103.9 79.15,103.48 79.15,71.05 79.93,70.56 	"/>
	<polygon id="XMLID_4899_" class="st10" points="85.6,67.09 85.6,100.56 81.62,102.95 81.62,69.59 	"/>
	<polygon id="XMLID_4898_" class="st12" points="85.6,100.43 84.82,100.01 84.82,67.58 85.6,67.09 	"/>
	<polygon id="XMLID_4897_" class="st13" points="51.77,60.07 66.77,50.95 83.09,58.99 67.71,68.16 	"/>
	<polygon id="XMLID_4896_" class="st7" points="51.77,60.07 53.86,60.07 67.92,51.52 66.77,50.95 	"/>
	<polygon id="XMLID_4895_" class="st14" points="66.79,49.29 66.77,50.95 67.92,51.52 67.92,49.85 	"/>
	<polygon id="XMLID_4894_" class="st4" points="67.99,29.21 47.61,19.12 66.88,7.37 87.51,17.47 	"/>
	<polygon id="XMLID_4893_" class="st5" points="67.99,69.84 47.61,59.86 47.61,19.12 67.99,29.21 	"/>
	<polygon id="XMLID_4892_" class="st6" points="67.99,69.84 87.51,58.1 87.51,17.47 67.99,29.21 	"/>
	<polygon id="XMLID_4891_" class="st7" points="67.99,29.21 67.99,25.04 47.61,14.88 47.61,19.12 	"/>
	<polygon id="XMLID_4890_" class="st8" points="87.51,17.47 87.51,13.2 67.99,25.04 67.99,29.21 	"/>
	<path id="XMLID_4887_" class="st9" d="M66.85,3.11L47.61,14.88l20.38,10.16L87.51,13.2L66.85,3.11z M67.77,23.36l-17.32-8.79
		L66.85,4.5l17.84,8.78L67.77,23.36z"/>
	<polygon id="XMLID_4886_" class="st8" points="54.27,16.49 66.83,8.86 66.85,4.5 50.45,14.58 	"/>
	<polygon id="XMLID_4885_" class="st7" points="66.85,4.5 66.83,8.86 80.67,15.67 84.69,13.27 	"/>
	<polygon id="XMLID_4884_" class="st10" points="53.92,59.62 53.92,25.69 49.8,23.7 49.8,57.65 	"/>
	<polygon id="XMLID_4883_" class="st11" points="49.8,57.69 50.43,57.23 53.92,58.85 53.92,59.66 	"/>
	<polygon id="XMLID_4882_" class="st12" points="49.8,23.7 49.8,57.69 50.43,57.23 50.43,24.07 	"/>
	<polygon id="XMLID_4881_" class="st10" points="59.69,62.46 59.69,28.59 55.57,26.59 55.57,60.49 	"/>
	<polygon id="XMLID_4880_" class="st11" points="55.57,60.58 56.21,60.12 59.69,61.74 59.69,62.55 	"/>
	<polygon id="XMLID_4879_" class="st12" points="55.57,26.59 55.57,60.58 56.21,60.12 56.21,26.96 	"/>
	<polygon id="XMLID_4878_" class="st10" points="65.47,65.19 65.47,31.22 61.35,29.23 61.35,63.22 	"/>
	<polygon id="XMLID_4877_" class="st11" points="61.35,63.22 61.98,62.76 65.47,64.38 65.47,65.19 	"/>
	<polygon id="XMLID_4876_" class="st12" points="61.35,29.23 61.35,63.22 61.98,62.76 61.98,29.6 	"/>
	<polygon id="XMLID_4875_" class="st10" points="74.25,29.14 74.25,62.49 70.28,64.88 70.28,31.64 	"/>
	<polygon id="XMLID_4874_" class="st12" points="74.25,62.49 73.47,62.06 73.47,29.63 74.25,29.14 	"/>
	<polygon id="XMLID_4873_" class="st11" points="70.31,65.05 74.29,62.66 73.51,62.23 70.31,64.1 	"/>
	<polygon id="XMLID_4872_" class="st10" points="79.99,25.76 80.03,58.88 76.05,61.27 76.02,28.26 	"/>
	<polygon id="XMLID_4871_" class="st12" points="79.99,59.1 79.21,58.68 79.21,26.25 79.99,25.76 	"/>
	<polygon id="XMLID_4870_" class="st11" points="76.05,61.67 80.03,59.27 79.25,58.85 76.05,60.72 	"/>
	<polygon id="XMLID_4869_" class="st10" points="85.66,22.29 85.66,55.76 81.68,58.15 81.68,24.79 	"/>
	<polygon id="XMLID_4868_" class="st12" points="85.66,55.64 84.88,55.21 84.88,22.78 85.66,22.29 	"/>
	<polygon id="XMLID_4867_" class="st11" points="81.72,58.2 85.7,55.81 84.91,55.38 81.72,57.25 	"/>
	<polygon id="XMLID_4866_" class="st13" points="51.83,15.28 66.83,6.16 83.15,14.19 67.77,23.36 	"/>
	<polygon id="XMLID_4865_" class="st7" points="51.83,15.28 53.92,15.28 67.99,6.72 66.83,6.16 	"/>
	<polygon id="XMLID_4864_" class="st14" points="66.85,4.5 66.83,6.16 67.99,6.72 67.99,5.05 	"/>
	<g id="XMLID_4858_">
		<polygon id="XMLID_4863_" class="st15" points="64.98,16.08 70.99,12.45 70.99,8.52 64.98,12.19 		"/>
		<polygon id="XMLID_4862_" class="st16" points="64.98,16.08 58.48,12.95 58.48,9.06 64.98,12.19 		"/>
		<polygon id="XMLID_4861_" class="st17" points="64.98,12.19 58.48,9.06 64.58,5.38 70.99,8.52 		"/>
		<polygon id="XMLID_4860_" class="st18" points="59.79,8.94 64.98,11.37 69.66,8.52 64.58,6.15 		"/>
		<polygon id="XMLID_4859_" class="st7" points="64.98,16.08 67.13,16.08 74.4,11.71 70.99,10.23 70.99,12.45 		"/>
	</g>
	<g id="XMLID_4852_">
		<polygon id="XMLID_4857_" class="st15" points="75.57,16.39 77.55,15.19 77.55,13.9 75.57,15.11 		"/>
		<polygon id="XMLID_4856_" class="st16" points="75.57,16.39 73.43,15.36 73.43,14.08 75.57,15.11 		"/>
		<polygon id="XMLID_4855_" class="st17" points="75.57,15.11 73.43,14.08 75.44,12.86 77.55,13.9 		"/>
		<polygon id="XMLID_4854_" class="st18" points="73.86,14.04 75.57,14.84 77.11,13.9 75.44,13.12 		"/>
		<polygon id="XMLID_4853_" class="st7" points="75.57,16.39 77.22,16.39 79.32,15.18 77.55,14.34 77.55,15.19 		"/>
	</g>
	<g id="XMLID_4847_">
		<polygon id="XMLID_4851_" class="st16" points="64.57,20.76 60.11,18.62 60.11,18.07 64.57,20.22 		"/>
		<polygon id="XMLID_4850_" class="st17" points="64.57,20.22 60.11,18.07 64.29,15.55 68.69,17.7 		"/>
		<polygon id="XMLID_4849_" class="st18" points="61.01,18 64.57,19.66 67.78,17.7 64.29,16.08 		"/>
		<polygon id="XMLID_4848_" class="st7" points="65.13,21.03 65.84,21.36 66.45,21.36 70.83,18.72 68.69,17.7 68.69,18.88 		"/>
	</g>
	<g id="XMLID_4842_">
		<polygon id="XMLID_4846_" class="st15" points="85.9,201.18 91.9,197.55 91.9,193.62 85.9,197.29 		"/>
		<polygon id="XMLID_4845_" class="st16" points="85.9,201.18 79.39,198.06 79.39,194.16 85.9,197.29 		"/>
		<polygon id="XMLID_4844_" class="st17" points="85.9,197.29 79.39,194.16 85.49,190.48 91.9,193.62 		"/>
		<polygon id="XMLID_4843_" class="st18" points="80.7,194.05 85.9,196.47 90.58,193.62 85.49,191.25 		"/>
	</g>
	<g id="XMLID_4836_">
		<polygon id="XMLID_4841_" class="st15" points="89.78,201.13 91.75,199.93 91.75,198.64 89.78,199.85 		"/>
		<polygon id="XMLID_4840_" class="st16" points="89.78,201.13 87.63,200.1 87.63,198.81 89.78,199.85 		"/>
		<polygon id="XMLID_4839_" class="st17" points="89.78,199.85 87.63,198.81 89.64,197.6 91.75,198.64 		"/>
		<polygon id="XMLID_4838_" class="st18" points="88.06,198.78 89.78,199.58 91.32,198.64 89.64,197.86 		"/>
		<polygon id="XMLID_4837_" class="st19" points="89.78,201.13 91.42,201.13 93.52,199.91 91.75,199.08 91.75,199.93 		"/>
	</g>
	<polygon id="XMLID_4835_" class="st15" points="64.57,20.22 64.57,20.76 65.13,21.03 68.69,18.88 68.69,17.7 	"/>
	<g id="XMLID_4830_">
		<polygon id="XMLID_4834_" class="st16" points="79.55,204.04 75.09,201.9 75.09,201.36 79.55,203.5 		"/>
		<polygon id="XMLID_4833_" class="st17" points="79.55,203.5 75.09,201.36 79.27,198.84 83.67,200.99 		"/>
		<polygon id="XMLID_4832_" class="st18" points="75.99,201.28 79.55,202.94 82.76,200.99 79.27,199.36 		"/>
		<polygon id="XMLID_4831_" class="st15" points="79.55,204.04 80.11,204.31 83.67,202.16 83.67,200.99 79.55,203.5 		"/>
	</g>
</g>
</svg>
