<?xml version="1.0" encoding="utf-8"?>
<!-- Generator: Adobe Illustrator 24.1.2, SVG Export Plug-In . SVG Version: 6.00 Build 0)  -->
<svg version="1.1" id="Layer_1" xmlns="http://www.w3.org/2000/svg" xmlns:xlink="http://www.w3.org/1999/xlink" x="0px" y="0px"
	 viewBox="0 0 606.83 300.84" style="enable-background:new 0 0 606.83 300.84;" xml:space="preserve">
<style type="text/css">
	.st0{fill:#7C7B7B;}
	.st1{fill:#638EB9;}
	.st2{fill:#DAD9D7;}
</style>
<g>
	<g>
		<g>
			<g>
				<g>
					<rect x="31.86" y="191.44" class="st0" width="572.41" height="1.36"/>
				</g>
				<g>
					<rect x="31.86" y="116.19" class="st0" width="572.41" height="1.35"/>
				</g>
				<g>
					<rect x="31.86" y="40.96" class="st0" width="572.41" height="1.35"/>
				</g>
				<g>
					<g>
						<rect x="31.86" y="268.03" class="st0" width="1.35" height="9.42"/>
					</g>
					<g>
						<rect x="56.05" y="268.03" class="st0" width="1.34" height="9.42"/>
					</g>
					<g>
						<rect x="81.59" y="268.03" class="st0" width="1.35" height="9.42"/>
					</g>
					<g>
						<rect x="105.78" y="268.03" class="st0" width="1.33" height="9.42"/>
					</g>
					<g>
						<rect x="131.3" y="268.03" class="st0" width="1.35" height="9.42"/>
					</g>
					<g>
						<rect x="155.49" y="268.03" class="st0" width="1.35" height="9.42"/>
					</g>
					<g>
						<rect x="181.01" y="268.03" class="st0" width="1.36" height="9.42"/>
					</g>
					<g>
						<rect x="205.2" y="268.03" class="st0" width="1.34" height="9.42"/>
					</g>
					<g>
						<rect x="230.73" y="268.03" class="st0" width="1.35" height="9.42"/>
					</g>
					<g>
						<rect x="254.92" y="268.03" class="st0" width="1.33" height="9.42"/>
					</g>
					<g>
						<rect x="280.45" y="268.03" class="st0" width="1.34" height="9.42"/>
					</g>
					<g>
						<rect x="304.64" y="268.03" class="st0" width="1.34" height="9.42"/>
					</g>
					<g>
						<rect x="330.16" y="268.03" class="st0" width="1.34" height="9.42"/>
					</g>
					<g>
						<rect x="354.34" y="268.03" class="st0" width="1.35" height="9.42"/>
					</g>
					<g>
						<rect x="379.88" y="268.03" class="st0" width="1.34" height="9.42"/>
					</g>
					<g>
						<rect x="404.06" y="268.03" class="st0" width="1.34" height="9.42"/>
					</g>
					<g>
						<rect x="429.59" y="268.03" class="st0" width="1.34" height="9.42"/>
					</g>
					<g>
						<rect x="453.78" y="268.03" class="st0" width="1.34" height="9.42"/>
					</g>
					<g>
						<rect x="479.3" y="268.03" class="st0" width="1.36" height="9.42"/>
					</g>
					<g>
						<rect x="503.5" y="268.03" class="st0" width="1.34" height="9.42"/>
					</g>
					<g>
						<rect x="529.03" y="268.03" class="st0" width="1.35" height="9.42"/>
					</g>
					<g>
						<rect x="553.22" y="268.03" class="st0" width="1.35" height="9.42"/>
					</g>
					<g>
						<rect x="578.74" y="268.03" class="st0" width="1.36" height="9.42"/>
					</g>
					<g>
						<rect x="602.93" y="268.03" class="st0" width="1.35" height="9.42"/>
					</g>
				</g>
				<g>
					<rect x="31.86" y="266.68" class="st0" width="572.41" height="1.34"/>
				</g>
			</g>
			<g>
				<path class="st0" d="M46.44,274.82h-2.78l-0.27,1.84c0.16-0.02,0.32-0.04,0.58-0.04c0.57,0,1.12,0.11,1.57,0.38
					c0.57,0.32,1.03,0.96,1.03,1.89c0,1.42-1.12,2.48-2.7,2.48c-0.78,0-1.44-0.23-1.8-0.45l0.25-0.75c0.3,0.17,0.9,0.4,1.56,0.4
					c0.92,0,1.72-0.6,1.71-1.59c0-0.96-0.63-1.62-2.07-1.62c-0.42,0-0.75,0.04-1.02,0.07l0.47-3.45h3.48V274.82z"/>
			</g>
			<g>
				<path class="st0" d="M66.24,274.9h-0.03l-1.26,0.68l-0.19-0.75l1.58-0.85h0.85v7.25h-0.96V274.9z"/>
				<path class="st0" d="M72.15,281.37c-1.41,0-2.38-1.33-2.41-3.73c0-2.45,1.06-3.77,2.53-3.77c1.52,0,2.39,1.36,2.39,3.67
					C74.66,280,73.75,281.37,72.15,281.37L72.15,281.37z M72.2,280.61c1,0,1.47-1.17,1.47-3.03c0-1.78-0.45-2.95-1.47-2.95
					c-0.9,0-1.48,1.15-1.48,2.95c-0.01,1.89,0.56,3.03,1.47,3.03H72.2z"/>
			</g>
			<g>
				<path class="st0" d="M91.12,274.9h-0.03l-1.26,0.68l-0.19-0.75l1.58-0.85h0.84v7.25h-0.95V274.9z"/>
				<path class="st0" d="M99.04,274.82h-2.77l-0.28,1.84c0.17-0.02,0.32-0.04,0.6-0.04c0.57,0,1.12,0.11,1.56,0.38
					c0.57,0.32,1.05,0.96,1.05,1.89c0,1.42-1.14,2.48-2.71,2.48c-0.8,0-1.44-0.23-1.81-0.45l0.25-0.75c0.3,0.17,0.89,0.4,1.56,0.4
					c0.92,0,1.72-0.6,1.71-1.59c0-0.96-0.64-1.62-2.07-1.62c-0.44,0-0.76,0.04-1.02,0.07l0.47-3.45h3.46V274.82z"/>
			</g>
			<g>
				<path class="st0" d="M113.86,281.24v-0.6l0.77-0.75c1.84-1.77,2.69-2.7,2.69-3.79c0-0.75-0.34-1.43-1.42-1.43
					c-0.67,0-1.21,0.35-1.54,0.62l-0.31-0.69c0.49-0.42,1.22-0.75,2.06-0.75c1.54,0,2.2,1.07,2.2,2.1c0,1.34-0.97,2.42-2.5,3.88
					l-0.57,0.55v0.02h3.25v0.81H113.86z"/>
				<path class="st0" d="M121.89,281.37c-1.42,0-2.39-1.33-2.42-3.73c0-2.45,1.07-3.77,2.54-3.77c1.52,0,2.39,1.36,2.39,3.67
					c0,2.45-0.92,3.82-2.5,3.82H121.89z M121.93,280.61c1,0,1.48-1.17,1.48-3.03c0-1.78-0.45-2.95-1.48-2.95
					c-0.88,0-1.47,1.15-1.47,2.95C120.44,279.47,121.02,280.61,121.93,280.61L121.93,280.61z"/>
			</g>
			<g>
				<path class="st0" d="M138.73,281.24v-0.6l0.76-0.75c1.86-1.77,2.7-2.7,2.7-3.79c0-0.75-0.35-1.43-1.42-1.43
					c-0.67,0-1.21,0.35-1.54,0.62l-0.31-0.69c0.48-0.42,1.21-0.75,2.06-0.75c1.54,0,2.2,1.07,2.2,2.1c0,1.34-0.97,2.42-2.5,3.88
					l-0.57,0.55v0.02h3.25v0.81H138.73z"/>
				<path class="st0" d="M148.79,274.82h-2.77l-0.29,1.84c0.17-0.02,0.32-0.04,0.6-0.04c0.57,0,1.11,0.11,1.56,0.38
					c0.57,0.32,1.03,0.96,1.03,1.89c0,1.42-1.12,2.48-2.69,2.48c-0.8,0-1.46-0.23-1.81-0.45l0.24-0.75c0.31,0.17,0.9,0.4,1.57,0.4
					c0.91,0,1.72-0.6,1.71-1.59c0-0.96-0.63-1.62-2.08-1.62c-0.42,0-0.75,0.04-1.01,0.07l0.46-3.45h3.48V274.82z"/>
			</g>
			<g>
				<path class="st0" d="M163.83,280.13c0.27,0.16,0.92,0.44,1.61,0.44c1.26,0,1.66-0.78,1.65-1.41c-0.01-1.01-0.93-1.45-1.88-1.45
					h-0.53v-0.73h0.53c0.72,0,1.62-0.36,1.62-1.22c0-0.59-0.36-1.1-1.27-1.1c-0.57,0-1.13,0.25-1.44,0.47l-0.27-0.71
					c0.39-0.27,1.13-0.56,1.91-0.56c1.43,0,2.08,0.84,2.08,1.73c0,0.75-0.46,1.38-1.34,1.72v0.02c0.89,0.16,1.62,0.83,1.62,1.84
					c0,1.16-0.91,2.18-2.64,2.18c-0.81,0-1.53-0.26-1.88-0.5L163.83,280.13z"/>
				<path class="st0" d="M171.64,281.37c-1.42,0-2.39-1.33-2.42-3.73c0-2.45,1.06-3.77,2.53-3.77c1.52,0,2.4,1.36,2.4,3.67
					C174.16,280,173.24,281.37,171.64,281.37L171.64,281.37z M171.68,280.61c1,0,1.47-1.17,1.47-3.03c0-1.78-0.45-2.95-1.47-2.95
					c-0.88,0-1.47,1.15-1.47,2.95c-0.03,1.89,0.54,3.03,1.45,3.03H171.68z"/>
			</g>
			<g>
				<path class="st0" d="M188.71,280.13c0.27,0.16,0.91,0.44,1.61,0.44c1.25,0,1.66-0.78,1.64-1.41c-0.01-1.01-0.93-1.45-1.88-1.45
					h-0.53v-0.73h0.53c0.72,0,1.62-0.36,1.62-1.22c0-0.59-0.36-1.1-1.27-1.1c-0.57,0-1.13,0.25-1.46,0.47l-0.26-0.71
					c0.39-0.27,1.12-0.56,1.91-0.56c1.43,0,2.08,0.84,2.08,1.73c0,0.75-0.46,1.38-1.34,1.72v0.02c0.89,0.16,1.62,0.83,1.62,1.84
					c0,1.16-0.91,2.18-2.64,2.18c-0.81,0-1.53-0.26-1.9-0.5L188.71,280.13z"/>
				<path class="st0" d="M198.53,274.82h-2.78l-0.27,1.84c0.16-0.02,0.32-0.04,0.59-0.04c0.57,0,1.12,0.11,1.57,0.38
					c0.57,0.32,1.04,0.96,1.04,1.89c0,1.42-1.12,2.48-2.71,2.48c-0.78,0-1.44-0.23-1.81-0.45l0.25-0.75c0.3,0.17,0.88,0.4,1.56,0.4
					c0.92,0,1.72-0.6,1.71-1.59c0-0.96-0.64-1.62-2.07-1.62c-0.43,0-0.75,0.04-1.01,0.07l0.46-3.45h3.47V274.82z"/>
			</g>
			<g>
				<path class="st0" d="M216.39,281.24v-1.98h-3.38v-0.63l3.24-4.63h1.06v4.52h1.01v0.75h-1.01v1.98H216.39z M216.39,278.51v-2.44
					c0-0.39,0.01-0.75,0.03-1.13h-0.03c-0.23,0.43-0.41,0.75-0.61,1.08l-1.77,2.47v0.02H216.39z"/>
				<path class="st0" d="M221.38,281.37c-1.41,0-2.38-1.33-2.4-3.73c0-2.45,1.06-3.77,2.53-3.77c1.52,0,2.41,1.36,2.41,3.67
					c0,2.45-0.93,3.82-2.52,3.82H221.38z M221.43,280.61c1,0,1.47-1.17,1.47-3.03c0-1.78-0.45-2.95-1.47-2.95
					c-0.89,0-1.48,1.15-1.48,2.95c-0.01,1.89,0.57,3.03,1.47,3.03H221.43z"/>
			</g>
			<g>
				<path class="st0" d="M241.25,281.24v-1.98h-3.35v-0.63l3.23-4.63h1.06v4.52h1.02v0.75h-1.02v1.98H241.25z M241.25,278.51v-2.44
					c0-0.39,0.01-0.75,0.04-1.13h-0.04c-0.21,0.43-0.4,0.75-0.6,1.08l-1.77,2.47v0.02H241.25z"/>
				<path class="st0" d="M248.27,274.82h-2.77l-0.27,1.84c0.16-0.02,0.31-0.04,0.58-0.04c0.57,0,1.12,0.11,1.56,0.38
					c0.57,0.32,1.03,0.96,1.03,1.89c0,1.42-1.11,2.48-2.69,2.48c-0.8,0-1.45-0.23-1.81-0.45l0.25-0.75c0.3,0.17,0.9,0.4,1.56,0.4
					c0.91,0,1.72-0.6,1.71-1.59c0-0.96-0.64-1.62-2.07-1.62c-0.43,0-0.75,0.04-1.02,0.07l0.47-3.45h3.46V274.82z"/>
			</g>
			<g>
				<path class="st0" d="M267.42,274.82h-2.76l-0.29,1.84c0.18-0.02,0.32-0.04,0.6-0.04c0.57,0,1.12,0.11,1.57,0.38
					c0.56,0.32,1.04,0.96,1.04,1.89c0,1.42-1.13,2.48-2.7,2.48c-0.8,0-1.45-0.23-1.81-0.45l0.25-0.75c0.3,0.17,0.9,0.4,1.56,0.4
					c0.92,0,1.72-0.6,1.71-1.59c0-0.96-0.64-1.62-2.08-1.62c-0.43,0-0.75,0.04-1.01,0.07l0.47-3.45h3.46V274.82z"/>
				<path class="st0" d="M271.13,281.37c-1.42,0-2.39-1.33-2.42-3.73c0-2.45,1.06-3.77,2.54-3.77c1.51,0,2.39,1.36,2.39,3.67
					c0,2.45-0.92,3.82-2.5,3.82H271.13z M271.18,280.61c0.98,0,1.47-1.17,1.47-3.03c0-1.78-0.45-2.95-1.47-2.95
					c-0.9,0-1.48,1.15-1.48,2.95c-0.01,1.89,0.56,3.03,1.47,3.03H271.18z"/>
			</g>
			<g>
				<path class="st0" d="M292.29,274.82h-2.76l-0.29,1.84c0.17-0.02,0.32-0.04,0.6-0.04c0.56,0,1.12,0.11,1.56,0.38
					c0.58,0.32,1.05,0.96,1.05,1.89c0,1.42-1.14,2.48-2.7,2.48c-0.8,0-1.45-0.23-1.81-0.45l0.25-0.75c0.3,0.17,0.88,0.4,1.56,0.4
					c0.92,0,1.72-0.6,1.71-1.59c0-0.96-0.64-1.62-2.08-1.62c-0.42,0-0.75,0.04-1.01,0.07l0.46-3.45h3.48V274.82z"/>
				<path class="st0" d="M298.02,274.82h-2.76l-0.29,1.84c0.18-0.02,0.33-0.04,0.6-0.04c0.57,0,1.12,0.11,1.56,0.38
					c0.57,0.32,1.03,0.96,1.03,1.89c0,1.42-1.12,2.48-2.69,2.48c-0.8,0-1.46-0.23-1.8-0.45l0.24-0.75c0.31,0.17,0.9,0.4,1.57,0.4
					c0.91,0,1.71-0.6,1.71-1.59c0-0.96-0.64-1.62-2.08-1.62c-0.42,0-0.75,0.04-1.01,0.07l0.46-3.45h3.47V274.82z"/>
			</g>
			<g>
				<path class="st0" d="M316.97,274.68c-0.19-0.01-0.45,0-0.73,0.05c-1.55,0.25-2.34,1.38-2.52,2.58h0.03
					c0.35-0.47,0.96-0.85,1.77-0.85c1.27,0,2.18,0.93,2.18,2.34c0,1.33-0.91,2.57-2.42,2.57c-1.54,0-2.55-1.21-2.55-3.09
					c0-1.43,0.5-2.55,1.22-3.29c0.6-0.58,1.41-0.96,2.32-1.06c0.3-0.05,0.54-0.06,0.71-0.06V274.68z M315.29,280.61
					c0.83,0,1.41-0.71,1.41-1.74c0-1.03-0.59-1.66-1.5-1.66c-0.59,0-1.15,0.35-1.42,0.89c-0.05,0.12-0.1,0.25-0.1,0.42
					C313.69,279.71,314.25,280.61,315.29,280.61L315.29,280.61z"/>
				<path class="st0" d="M320.88,281.37c-1.43,0-2.39-1.33-2.42-3.73c0-2.45,1.06-3.77,2.53-3.77c1.52,0,2.41,1.36,2.41,3.67
					C323.39,280,322.47,281.37,320.88,281.37L320.88,281.37z M320.91,280.61c1,0,1.47-1.17,1.47-3.03c0-1.78-0.45-2.95-1.47-2.95
					c-0.89,0-1.47,1.15-1.47,2.95c-0.03,1.89,0.56,3.03,1.46,3.03H320.91z"/>
			</g>
			<g>
				<path class="st0" d="M341.84,274.68c-0.2-0.01-0.45,0-0.73,0.05c-1.54,0.25-2.35,1.38-2.52,2.58h0.03
					c0.34-0.47,0.96-0.85,1.76-0.85c1.28,0,2.19,0.93,2.19,2.34c0,1.33-0.91,2.57-2.42,2.57c-1.54,0-2.57-1.21-2.57-3.09
					c0-1.43,0.51-2.55,1.23-3.29c0.6-0.58,1.41-0.96,2.32-1.06c0.29-0.05,0.54-0.06,0.71-0.06V274.68z M340.16,280.61
					c0.83,0,1.41-0.71,1.41-1.74c0-1.03-0.6-1.66-1.49-1.66c-0.6,0-1.15,0.35-1.42,0.89c-0.05,0.12-0.1,0.25-0.1,0.42
					c0.01,1.2,0.57,2.09,1.59,2.09H340.16z"/>
				<path class="st0" d="M347.76,274.82h-2.77l-0.27,1.84c0.17-0.02,0.32-0.04,0.58-0.04c0.57,0,1.12,0.11,1.57,0.38
					c0.57,0.32,1.03,0.96,1.03,1.89c0,1.42-1.12,2.48-2.7,2.48c-0.79,0-1.45-0.23-1.81-0.45l0.25-0.75c0.3,0.17,0.9,0.4,1.56,0.4
					c0.92,0,1.72-0.6,1.71-1.59c0-0.96-0.63-1.62-2.07-1.62c-0.42,0-0.75,0.04-1.02,0.07l0.47-3.45h3.46V274.82z"/>
			</g>
			<g>
				<path class="st0" d="M367.29,273.99v0.65l-3.16,6.6h-1l3.14-6.42v-0.02h-3.55v-0.81H367.29z"/>
				<path class="st0" d="M370.61,281.37c-1.42,0-2.38-1.33-2.4-3.73c0-2.45,1.06-3.77,2.53-3.77c1.52,0,2.4,1.36,2.4,3.67
					c0,2.45-0.93,3.82-2.52,3.82H370.61z M370.67,280.61c0.98,0,1.47-1.17,1.47-3.03c0-1.78-0.45-2.95-1.47-2.95
					c-0.9,0-1.47,1.15-1.47,2.95c-0.02,1.89,0.55,3.03,1.46,3.03H370.67z"/>
			</g>
			<g>
				<path class="st0" d="M392.16,273.99v0.65l-3.16,6.6h-1l3.14-6.42v-0.02h-3.55v-0.81H392.16z"/>
				<path class="st0" d="M397.51,274.82h-2.77l-0.27,1.84c0.16-0.02,0.32-0.04,0.59-0.04c0.57,0,1.12,0.11,1.57,0.38
					c0.56,0.32,1.03,0.96,1.03,1.89c0,1.42-1.13,2.48-2.7,2.48c-0.79,0-1.45-0.23-1.81-0.45l0.25-0.75c0.3,0.17,0.89,0.4,1.56,0.4
					c0.91,0,1.72-0.6,1.71-1.59c0-0.96-0.64-1.62-2.07-1.62c-0.43,0-0.76,0.04-1.02,0.07l0.46-3.45h3.48V274.82z"/>
			</g>
			<g>
				<path class="st0" d="M414.76,273.87c1.41,0,2.12,0.87,2.12,1.78c0,0.61-0.31,1.28-1.2,1.7v0.02c0.9,0.36,1.46,1,1.46,1.87
					c0,1.28-1.08,2.12-2.46,2.12c-1.52,0-2.44-0.9-2.44-1.95c0-0.91,0.56-1.57,1.43-1.96v-0.02c-0.81-0.39-1.16-1.01-1.16-1.63
					c0-1.15,0.97-1.93,2.24-1.93H414.76z M414.71,280.64c0.87,0,1.45-0.53,1.45-1.28c0-0.87-0.61-1.31-1.59-1.6
					c-0.85,0.25-1.31,0.82-1.31,1.52c-0.04,0.71,0.52,1.36,1.44,1.36H414.71z M414.72,274.58c-0.81,0-1.26,0.54-1.26,1.16
					c-0.01,0.72,0.55,1.11,1.38,1.34c0.62-0.21,1.11-0.66,1.11-1.31c0-0.59-0.35-1.18-1.22-1.18H414.72z"/>
				<path class="st0" d="M420.36,281.37c-1.42,0-2.38-1.33-2.42-3.73c0-2.45,1.06-3.77,2.54-3.77c1.52,0,2.39,1.36,2.39,3.67
					c0,2.45-0.92,3.82-2.5,3.82H420.36z M420.41,280.61c0.99,0,1.46-1.17,1.46-3.03c0-1.78-0.44-2.95-1.46-2.95
					c-0.9,0-1.48,1.15-1.48,2.95c-0.03,1.89,0.56,3.03,1.46,3.03H420.41z"/>
			</g>
			<g>
				<path class="st0" d="M439.63,273.87c1.41,0,2.12,0.87,2.12,1.78c0,0.61-0.31,1.28-1.21,1.7v0.02c0.91,0.36,1.47,1,1.47,1.87
					c0,1.28-1.08,2.12-2.47,2.12c-1.52,0-2.44-0.9-2.44-1.95c0-0.91,0.55-1.57,1.43-1.96v-0.02c-0.81-0.39-1.16-1.01-1.16-1.63
					c0-1.15,0.97-1.93,2.24-1.93H439.63z M439.57,280.64c0.89,0,1.45-0.53,1.45-1.28c0-0.87-0.61-1.31-1.58-1.6
					c-0.85,0.25-1.31,0.82-1.31,1.52c-0.04,0.71,0.52,1.36,1.43,1.36H439.57z M439.59,274.58c-0.82,0-1.26,0.54-1.26,1.16
					c-0.01,0.72,0.55,1.11,1.38,1.34c0.62-0.21,1.11-0.66,1.11-1.31c0-0.59-0.35-1.18-1.22-1.18H439.59z"/>
				<path class="st0" d="M447.26,274.82h-2.77l-0.28,1.84c0.17-0.02,0.32-0.04,0.6-0.04c0.56,0,1.12,0.11,1.56,0.38
					c0.57,0.32,1.05,0.96,1.05,1.89c0,1.42-1.14,2.48-2.71,2.48c-0.8,0-1.46-0.23-1.81-0.45l0.24-0.75c0.31,0.17,0.89,0.4,1.57,0.4
					c0.91,0,1.71-0.6,1.71-1.59c0-0.96-0.64-1.62-2.08-1.62c-0.42,0-0.75,0.04-1.02,0.07l0.47-3.45h3.48V274.82z"/>
			</g>
			<g>
				<path class="st0" d="M462.65,280.56c0.21,0.01,0.45,0,0.79-0.04c0.57-0.06,1.1-0.3,1.52-0.71c0.47-0.43,0.82-1.07,0.96-1.93
					h-0.04c-0.4,0.5-0.99,0.78-1.72,0.78c-1.3,0-2.14-0.98-2.14-2.23c0-1.36,1.01-2.56,2.49-2.56c1.48,0,2.39,1.19,2.39,3.05
					c0,1.59-0.53,2.72-1.24,3.41c-0.56,0.54-1.32,0.88-2.1,0.98c-0.36,0.03-0.69,0.06-0.9,0.05V280.56z M464.42,274.62
					c-0.83,0-1.42,0.74-1.42,1.77c0,0.9,0.55,1.53,1.39,1.53c0.66,0,1.17-0.32,1.43-0.75c0.05-0.1,0.09-0.21,0.09-0.37
					c0.01-1.25-0.46-2.18-1.48-2.18H464.42z"/>
				<path class="st0" d="M470.11,281.37c-1.42,0-2.39-1.33-2.4-3.73c0-2.45,1.06-3.77,2.53-3.77c1.51,0,2.39,1.36,2.39,3.67
					c0,2.45-0.92,3.82-2.5,3.82H470.11z M470.15,280.61c1,0,1.48-1.17,1.48-3.03c0-1.78-0.45-2.95-1.48-2.95
					c-0.88,0-1.47,1.15-1.47,2.95C468.65,279.47,469.24,280.61,470.15,280.61L470.15,280.61z"/>
			</g>
			<g>
				<path class="st0" d="M487.51,280.56c0.21,0.01,0.46,0,0.8-0.04c0.56-0.06,1.11-0.3,1.52-0.71c0.47-0.43,0.82-1.07,0.95-1.93
					h-0.03c-0.41,0.5-0.98,0.78-1.72,0.78c-1.31,0-2.14-0.98-2.14-2.23c0-1.36,1-2.56,2.49-2.56c1.48,0,2.39,1.19,2.39,3.05
					c0,1.59-0.54,2.72-1.25,3.41c-0.56,0.54-1.33,0.88-2.1,0.98c-0.36,0.03-0.69,0.06-0.91,0.05V280.56z M489.28,274.62
					c-0.82,0-1.41,0.74-1.41,1.77c0,0.9,0.55,1.53,1.39,1.53c0.65,0,1.17-0.32,1.43-0.75c0.05-0.1,0.07-0.21,0.07-0.37
					c0.01-1.25-0.45-2.18-1.48-2.18H489.28z"/>
				<path class="st0" d="M497,274.82h-2.76l-0.29,1.84c0.17-0.02,0.32-0.04,0.6-0.04c0.56,0,1.11,0.11,1.56,0.38
					c0.57,0.32,1.03,0.96,1.03,1.89c0,1.42-1.12,2.48-2.69,2.48c-0.8,0-1.46-0.23-1.81-0.45l0.24-0.75c0.3,0.17,0.9,0.4,1.57,0.4
					c0.91,0,1.71-0.6,1.69-1.59c0-0.96-0.64-1.62-2.07-1.62c-0.42,0-0.75,0.04-1.01,0.07l0.46-3.45H497V274.82z"/>
			</g>
			<g>
				<path class="st0" d="M511.08,274.9h-0.01l-1.26,0.68l-0.19-0.75l1.57-0.85h0.85v7.25h-0.96V274.9z"/>
				<path class="st0" d="M517,281.37c-1.42,0-2.39-1.33-2.42-3.73c0-2.45,1.06-3.77,2.54-3.77c1.51,0,2.39,1.36,2.39,3.67
					C519.51,280,518.59,281.37,517,281.37L517,281.37z M517.03,280.61c0.99,0,1.47-1.17,1.47-3.03c0-1.78-0.44-2.95-1.47-2.95
					c-0.89,0-1.47,1.15-1.47,2.95c-0.03,1.89,0.56,3.03,1.46,3.03H517.03z"/>
				<path class="st0" d="M522.71,281.37c-1.41,0-2.38-1.33-2.4-3.73c0-2.45,1.06-3.77,2.53-3.77c1.52,0,2.4,1.36,2.4,3.67
					c0,2.45-0.92,3.82-2.5,3.82H522.71z M522.76,280.61c1,0,1.47-1.17,1.47-3.03c0-1.78-0.45-2.95-1.47-2.95
					c-0.89,0-1.47,1.15-1.47,2.95C521.27,279.47,521.85,280.61,522.76,280.61L522.76,280.61z"/>
			</g>
			<g>
				<path class="st0" d="M535.95,274.9h-0.01l-1.26,0.68l-0.2-0.75l1.58-0.85h0.85v7.25h-0.96V274.9z"/>
				<path class="st0" d="M541.87,281.37c-1.42,0-2.39-1.33-2.42-3.73c0-2.45,1.06-3.77,2.53-3.77c1.52,0,2.4,1.36,2.4,3.67
					C544.39,280,543.45,281.37,541.87,281.37L541.87,281.37z M541.91,280.61c0.99,0,1.47-1.17,1.47-3.03c0-1.78-0.44-2.95-1.47-2.95
					c-0.9,0-1.47,1.15-1.47,2.95c-0.02,1.89,0.56,3.03,1.46,3.03H541.91z"/>
				<path class="st0" d="M549.6,274.82h-2.76l-0.27,1.84c0.16-0.02,0.32-0.04,0.59-0.04c0.57,0,1.12,0.11,1.57,0.38
					c0.56,0.32,1.03,0.96,1.03,1.89c0,1.42-1.12,2.48-2.7,2.48c-0.79,0-1.46-0.23-1.81-0.45l0.25-0.75c0.3,0.17,0.88,0.4,1.56,0.4
					c0.92,0,1.72-0.6,1.71-1.59c0-0.96-0.64-1.62-2.08-1.62c-0.41,0-0.75,0.04-1.01,0.07l0.47-3.45h3.46V274.82z"/>
			</g>
			<g>
				<path class="st0" d="M560.82,274.9L560.82,274.9l-1.27,0.68l-0.2-0.75l1.58-0.85h0.83v7.25h-0.95V274.9z"/>
				<path class="st0" d="M566.56,274.9h-0.02l-1.26,0.68l-0.19-0.75l1.58-0.85h0.84v7.25h-0.95V274.9z"/>
				<path class="st0" d="M572.46,281.37c-1.42,0-2.39-1.33-2.41-3.73c0-2.45,1.06-3.77,2.53-3.77c1.51,0,2.39,1.36,2.39,3.67
					c0,2.45-0.92,3.82-2.5,3.82H572.46z M572.51,280.61c0.98,0,1.47-1.17,1.47-3.03c0-1.78-0.45-2.95-1.47-2.95
					c-0.9,0-1.48,1.15-1.48,2.95c-0.01,1.89,0.56,3.03,1.47,3.03H572.51z"/>
			</g>
			<g>
				<path class="st0" d="M585.7,274.9h-0.03l-1.26,0.68l-0.18-0.75l1.58-0.85h0.83v7.25h-0.95V274.9z"/>
				<path class="st0" d="M591.43,274.9h-0.02l-1.26,0.68l-0.19-0.75l1.58-0.85h0.84v7.25h-0.95V274.9z"/>
				<path class="st0" d="M599.34,274.82h-2.75l-0.29,1.84c0.16-0.02,0.32-0.04,0.6-0.04c0.56,0,1.11,0.11,1.56,0.38
					c0.57,0.32,1.05,0.96,1.05,1.89c0,1.42-1.13,2.48-2.7,2.48c-0.79,0-1.45-0.23-1.81-0.45l0.25-0.75c0.3,0.17,0.89,0.4,1.56,0.4
					c0.91,0,1.72-0.6,1.71-1.59c0-0.96-0.65-1.62-2.08-1.62c-0.42,0-0.75,0.04-1.01,0.07l0.46-3.45h3.46V274.82z"/>
			</g>
			<g>
				<path class="st0" d="M12.81,189.94h-2.76l-0.27,1.84c0.16-0.02,0.32-0.04,0.6-0.04c0.56,0,1.11,0.11,1.56,0.38
					c0.56,0.31,1.03,0.95,1.03,1.88c0,1.42-1.13,2.48-2.7,2.48c-0.79,0-1.45-0.23-1.81-0.45l0.25-0.75c0.3,0.17,0.9,0.4,1.56,0.4
					c0.92,0,1.72-0.6,1.72-1.58c0-0.96-0.65-1.61-2.08-1.61c-0.42,0-0.75,0.03-1.02,0.08l0.47-3.46h3.46V189.94z"/>
				<path class="st0" d="M16.52,196.5c-1.42,0-2.39-1.33-2.4-3.72c0-2.45,1.04-3.78,2.53-3.78c1.52,0,2.39,1.36,2.39,3.68
					c0,2.47-0.92,3.83-2.5,3.83H16.52z M16.56,195.73c0.99,0,1.48-1.17,1.48-3.01c0-1.79-0.45-2.96-1.48-2.96
					c-0.88,0-1.47,1.13-1.47,2.96C15.07,194.59,15.64,195.73,16.56,195.73L16.56,195.73z"/>
				<path class="st0" d="M22.25,196.5c-1.42,0-2.39-1.33-2.42-3.72c0-2.45,1.06-3.78,2.53-3.78c1.52,0,2.4,1.36,2.4,3.68
					c0,2.47-0.92,3.83-2.5,3.83H22.25z M22.28,195.73c1,0,1.47-1.17,1.47-3.01c0-1.79-0.44-2.96-1.47-2.96
					c-0.89,0-1.47,1.13-1.47,2.96c-0.03,1.87,0.56,3.01,1.46,3.01H22.28z"/>
			</g>
			<g>
				<path class="st0" d="M22.25,281.37c-1.42,0-2.39-1.33-2.42-3.73c0-2.45,1.06-3.77,2.53-3.77c1.52,0,2.4,1.36,2.4,3.67
					c0,2.45-0.92,3.82-2.5,3.82H22.25z M22.28,280.61c1,0,1.47-1.17,1.47-3.03c0-1.78-0.44-2.95-1.47-2.95
					c-0.89,0-1.47,1.15-1.47,2.95c-0.03,1.89,0.56,3.03,1.46,3.03H22.28z"/>
			</g>
			<g>
				<path class="st0" d="M4.88,114.11H4.86L3.6,114.8l-0.19-0.75l1.58-0.85h0.85v7.25H4.88V114.11z"/>
				<path class="st0" d="M10.79,120.57c-1.41,0-2.38-1.33-2.41-3.72c0-2.44,1.06-3.78,2.53-3.78c1.52,0,2.41,1.36,2.41,3.68
					c0,2.47-0.94,3.82-2.52,3.82H10.79z M10.84,119.81c0.98,0,1.47-1.17,1.47-3.01c0-1.79-0.45-2.97-1.47-2.97
					c-0.9,0-1.47,1.15-1.47,2.97c-0.03,1.87,0.56,3.01,1.46,3.01H10.84z"/>
				<path class="st0" d="M16.52,120.57c-1.42,0-2.39-1.33-2.4-3.72c0-2.44,1.04-3.78,2.53-3.78c1.52,0,2.39,1.36,2.39,3.68
					c0,2.47-0.92,3.82-2.5,3.82H16.52z M16.56,119.81c0.99,0,1.48-1.17,1.48-3.01c0-1.79-0.45-2.97-1.48-2.97
					c-0.88,0-1.47,1.15-1.47,2.97C15.07,118.67,15.64,119.81,16.56,119.81L16.56,119.81z"/>
				<path class="st0" d="M22.25,120.57c-1.42,0-2.39-1.33-2.42-3.72c0-2.44,1.06-3.78,2.53-3.78c1.52,0,2.4,1.36,2.4,3.68
					c0,2.47-0.92,3.82-2.5,3.82H22.25z M22.28,119.81c1,0,1.47-1.17,1.47-3.01c0-1.79-0.44-2.97-1.47-2.97
					c-0.89,0-1.47,1.15-1.47,2.97c-0.03,1.87,0.56,3.01,1.46,3.01H22.28z"/>
			</g>
			<g>
				<path class="st0" d="M4.88,38.88H4.86L3.6,39.55L3.41,38.8l1.58-0.85h0.85v7.25H4.88V38.88z"/>
				<path class="st0" d="M12.81,38.79h-2.76l-0.27,1.84c0.16-0.04,0.32-0.06,0.6-0.06c0.56,0,1.11,0.13,1.56,0.4
					c0.56,0.31,1.03,0.94,1.03,1.88c0,1.42-1.13,2.48-2.7,2.48c-0.79,0-1.45-0.23-1.81-0.44l0.25-0.76c0.3,0.18,0.9,0.4,1.56,0.4
					c0.92,0,1.72-0.6,1.72-1.58c0-0.96-0.65-1.62-2.08-1.62c-0.42,0-0.75,0.03-1.02,0.09l0.47-3.46h3.46V38.79z"/>
				<path class="st0" d="M16.52,45.33c-1.42,0-2.39-1.32-2.4-3.72c0-2.45,1.04-3.77,2.53-3.77c1.52,0,2.39,1.37,2.39,3.67
					c0,2.47-0.92,3.83-2.5,3.83H16.52z M16.56,44.57c0.99,0,1.48-1.17,1.48-3.01c0-1.79-0.45-2.97-1.48-2.97
					c-0.88,0-1.47,1.15-1.47,2.97C15.07,43.44,15.64,44.57,16.56,44.57L16.56,44.57z"/>
				<path class="st0" d="M22.25,45.33c-1.42,0-2.39-1.32-2.42-3.72c0-2.45,1.06-3.77,2.53-3.77c1.52,0,2.4,1.37,2.4,3.67
					c0,2.47-0.92,3.83-2.5,3.83H22.25z M22.28,44.57c1,0,1.47-1.17,1.47-3.01c0-1.79-0.44-2.97-1.47-2.97
					c-0.89,0-1.47,1.15-1.47,2.97c-0.03,1.88,0.56,3.01,1.46,3.01H22.28z"/>
			</g>
		</g>
		<polygon class="st1" points="602.93,265.35 33.21,265.35 33.21,104.11 104.43,165.91 254.92,28.86 366.44,42.3 447.05,92.01 
			602.93,27.52 		"/>
		<polygon class="st2" points="602.93,265.35 33.21,265.35 33.21,216.97 146.08,168.59 224.02,176.66 342.25,106.8 412.13,136.36 
			516.94,82.61 602.93,179.35 		"/>
	</g>
</g>
</svg>
