<?xml version="1.0" encoding="utf-8"?>
<!-- Generator: Adobe Illustrator 24.1.2, SVG Export Plug-In . SVG Version: 6.00 Build 0)  -->
<svg version="1.1" id="Layer_1" xmlns="http://www.w3.org/2000/svg" xmlns:xlink="http://www.w3.org/1999/xlink" x="0px" y="0px"
	 viewBox="0 0 396.05 273.29" style="enable-background:new 0 0 396.05 273.29;" xml:space="preserve">
<style type="text/css">
	.st0{fill:#845286;}
	.st1{fill:#DAD9D7;}
	.st2{fill:#DFC024;}
	.st3{fill:#638EB9;}
	.st4{fill:#DE6432;}
	.st5{fill:#A9A8A8;}
	.st6{fill:#7C7B7B;}
</style>
<g>
	<g>
		<rect x="314.48" y="12.12" class="st0" width="70.76" height="228.76"/>
		<g>
			<rect x="234.19" y="12.12" class="st1" width="70.73" height="228.76"/>
			<rect x="234.19" y="49.71" class="st2" width="70.73" height="191.17"/>
		</g>
		<g>
			<rect x="161.54" y="12.12" class="st1" width="64.99" height="228.76"/>
			<rect x="161.54" y="80.64" class="st3" width="64.99" height="160.24"/>
		</g>
		<g>
			<rect x="86.97" y="12.12" class="st1" width="65" height="228.76"/>
			<rect x="86.97" y="115.09" class="st4" width="65" height="125.79"/>
		</g>
		<g>
			<rect x="10.47" y="12.12" class="st1" width="68.84" height="228.76"/>
			<rect x="10.47" y="141.71" class="st5" width="68.84" height="99.17"/>
		</g>
	</g>
	<g>
		<g>
			<g>
				<g>
					<line class="st6" x1="42.99" y1="257" x2="42.99" y2="245.52"/>
					<rect x="41.08" y="245.52" class="st6" width="1.9" height="11.48"/>
				</g>
				<g>
					<line class="st6" x1="71.68" y1="257" x2="71.68" y2="245.52"/>
					<rect x="69.75" y="245.52" class="st6" width="1.93" height="11.48"/>
				</g>
				<g>
					<line class="st6" x1="98.43" y1="257" x2="98.43" y2="245.52"/>
					<rect x="96.52" y="245.52" class="st6" width="1.92" height="11.48"/>
				</g>
				<g>
					<line class="st6" x1="127.11" y1="257" x2="127.11" y2="245.52"/>
					<rect x="125.2" y="245.52" class="st6" width="1.91" height="11.48"/>
				</g>
				<g>
					<line class="st6" x1="157.71" y1="257" x2="157.71" y2="245.52"/>
					<rect x="155.79" y="245.52" class="st6" width="1.91" height="11.48"/>
				</g>
				<g>
					<line class="st6" x1="186.38" y1="257" x2="186.38" y2="245.52"/>
					<rect x="184.48" y="245.52" class="st6" width="1.9" height="11.48"/>
				</g>
				<g>
					<line class="st6" x1="213.16" y1="257" x2="213.16" y2="245.52"/>
					<rect x="211.24" y="245.52" class="st6" width="1.92" height="11.48"/>
				</g>
				<g>
					<line class="st6" x1="241.84" y1="257" x2="241.84" y2="245.52"/>
					<rect x="239.91" y="245.52" class="st6" width="1.93" height="11.48"/>
				</g>
				<g>
					<line class="st6" x1="272.43" y1="257" x2="272.43" y2="245.52"/>
					<rect x="270.5" y="245.52" class="st6" width="1.92" height="11.48"/>
				</g>
				<g>
					<line class="st6" x1="301.09" y1="257" x2="301.09" y2="245.52"/>
					<rect x="299.2" y="245.52" class="st6" width="1.9" height="11.48"/>
				</g>
				<g>
					<line class="st6" x1="327.87" y1="257" x2="327.87" y2="245.52"/>
					<rect x="325.96" y="245.52" class="st6" width="1.91" height="11.48"/>
				</g>
				<g>
					<line class="st6" x1="358.46" y1="257" x2="358.46" y2="245.52"/>
					<rect x="356.56" y="245.52" class="st6" width="1.91" height="11.48"/>
				</g>
				<g>
					<line class="st6" x1="387.14" y1="257" x2="387.14" y2="245.52"/>
					<rect x="385.23" y="245.52" class="st6" width="1.91" height="11.48"/>
				</g>
				<g>
					<line class="st6" x1="12.39" y1="257" x2="12.39" y2="245.52"/>
					<rect x="10.47" y="245.52" class="st6" width="1.92" height="11.48"/>
				</g>
			</g>
			<g>
				<line class="st6" x1="8.57" y1="247.43" x2="385.23" y2="247.43"/>
				<rect x="8.57" y="245.52" class="st6" width="376.67" height="1.92"/>
			</g>
		</g>
		<g>
			<path class="st6" d="M367.78,254.77v3.21l2.13,0.32c-0.01-0.19-0.04-0.36-0.04-0.67c0-0.68,0.14-1.3,0.45-1.81
				c0.35-0.69,1.11-1.21,2.19-1.21c1.65,0,2.88,1.3,2.88,3.12c0,0.93-0.27,1.69-0.51,2.1l-0.87-0.28c0.2-0.36,0.46-1.05,0.46-1.82
				c0-1.06-0.71-1.99-1.83-1.97c-1.12,0-1.88,0.73-1.88,2.41c0,0.49,0.04,0.86,0.09,1.17l-4.02-0.52v-4.04H367.78z"/>
		</g>
		<g>
			<path class="st6" d="M339,263.98v0.04l0.79,1.45l-0.88,0.21l-0.99-1.84v-0.98h8.42v1.11H339z"/>
			<path class="st6" d="M346.49,257.11c0,1.65-1.54,2.78-4.33,2.8c-2.84,0-4.38-1.23-4.38-2.93c0-1.76,1.58-2.79,4.27-2.79
				C344.91,254.19,346.49,255.26,346.49,257.11L346.49,257.11z M345.61,257.05c0-1.14-1.35-1.69-3.51-1.69
				c-2.05,0-3.43,0.51-3.43,1.69c0,1.05,1.32,1.71,3.43,1.71c2.18,0.05,3.51-0.64,3.51-1.7V257.05z"/>
		</g>
		<g>
			<path class="st6" d="M310.1,263.98v0.04l0.79,1.45l-0.87,0.21l-0.98-1.84v-0.98h8.42v1.11H310.1z"/>
			<path class="st6" d="M309.99,254.77v3.21l2.13,0.32c-0.04-0.19-0.05-0.36-0.05-0.67c0-0.68,0.14-1.3,0.44-1.81
				c0.37-0.69,1.11-1.21,2.21-1.21c1.63,0,2.87,1.3,2.87,3.12c0,0.93-0.26,1.69-0.52,2.1l-0.87-0.28c0.19-0.36,0.46-1.05,0.46-1.82
				c0-1.06-0.7-1.99-1.82-1.97c-1.13,0-1.89,0.73-1.89,2.41c0,0.49,0.04,0.86,0.09,1.17l-4.02-0.52v-4.04H309.99z"/>
		</g>
		<g>
			<path class="st6" d="M288.55,266.45h-0.7l-0.86-0.9c-2.05-2.16-3.15-3.13-4.42-3.13c-0.84,0-1.64,0.39-1.64,1.65
				c0,0.77,0.4,1.4,0.7,1.78l-0.8,0.37c-0.48-0.58-0.84-1.42-0.84-2.38c0-1.81,1.22-2.56,2.44-2.56c1.54,0,2.82,1.13,4.52,2.9
				l0.63,0.67h0.03v-3.78h0.94V266.45z"/>
			<path class="st6" d="M288.68,257.11c0,1.65-1.53,2.78-4.32,2.8c-2.84,0-4.37-1.23-4.37-2.93c0-1.76,1.57-2.79,4.25-2.79
				C287.13,254.19,288.68,255.26,288.68,257.11L288.68,257.11z M287.82,257.05c0-1.14-1.37-1.69-3.52-1.69
				c-2.08,0-3.44,0.51-3.44,1.69c0,1.05,1.33,1.71,3.44,1.71c2.19,0.05,3.52-0.64,3.52-1.7V257.05z"/>
		</g>
		<g>
			<path class="st6" d="M259.66,266.45h-0.7l-0.86-0.9c-2.07-2.16-3.15-3.13-4.4-3.13c-0.86,0-1.66,0.39-1.66,1.65
				c0,0.77,0.39,1.4,0.72,1.78l-0.81,0.37c-0.49-0.58-0.85-1.42-0.85-2.38c0-1.81,1.24-2.56,2.45-2.56c1.56,0,2.81,1.13,4.51,2.9
				l0.63,0.67h0.03v-3.78h0.95V266.45z"/>
			<path class="st6" d="M252.2,254.77v3.21l2.13,0.32c-0.04-0.19-0.05-0.36-0.05-0.67c0-0.68,0.14-1.3,0.45-1.81
				c0.37-0.69,1.12-1.21,2.19-1.21c1.65,0,2.87,1.3,2.87,3.12c0,0.93-0.26,1.69-0.52,2.1l-0.87-0.28c0.22-0.36,0.47-1.05,0.47-1.82
				c0-1.06-0.7-1.99-1.84-1.97c-1.11,0-1.87,0.73-1.87,2.41c0,0.49,0.04,0.86,0.09,1.17l-4.02-0.52v-4.04H252.2z"/>
		</g>
		<g>
			<path class="st6" d="M229.46,266.18c0.18-0.34,0.52-1.06,0.52-1.86c0-1.45-0.92-1.92-1.63-1.91c-1.18,0.02-1.69,1.08-1.69,2.17
				v0.63h-0.85v-0.63c0-0.83-0.43-1.88-1.43-1.88c-0.68,0-1.28,0.44-1.28,1.48c0,0.68,0.3,1.33,0.57,1.68l-0.83,0.32
				c-0.32-0.45-0.66-1.3-0.66-2.21c0-1.67,1-2.41,2.01-2.41c0.89,0,1.62,0.52,2.01,1.56h0.03c0.18-1.04,0.95-1.88,2.15-1.88
				c1.33,0,2.52,1.07,2.52,3.06c0,0.95-0.31,1.77-0.56,2.19L229.46,266.18z"/>
			<path class="st6" d="M230.9,257.11c0,1.65-1.54,2.78-4.33,2.8c-2.83,0-4.39-1.23-4.39-2.93c0-1.76,1.59-2.79,4.28-2.79
				C229.32,254.19,230.9,255.26,230.9,257.11L230.9,257.11z M230.01,257.05c0-1.14-1.35-1.69-3.51-1.69c-2.07,0-3.44,0.51-3.44,1.69
				c0,1.05,1.32,1.71,3.44,1.71c2.2,0.05,3.51-0.64,3.51-1.7V257.05z"/>
		</g>
		<g>
			<path class="st6" d="M200.56,266.18c0.2-0.34,0.52-1.06,0.52-1.86c0-1.45-0.92-1.92-1.62-1.91c-1.19,0.02-1.7,1.08-1.7,2.17v0.63
				h-0.85v-0.63c0-0.83-0.43-1.88-1.43-1.88c-0.66,0-1.27,0.44-1.27,1.48c0,0.68,0.3,1.33,0.57,1.68l-0.84,0.32
				c-0.32-0.45-0.63-1.3-0.63-2.21c0-1.67,0.97-2.41,1.99-2.41c0.88,0,1.64,0.52,2.01,1.56l0,0c0.21-1.04,0.98-1.88,2.17-1.88
				c1.34,0,2.52,1.07,2.52,3.06c0,0.95-0.3,1.77-0.57,2.19L200.56,266.18z"/>
			<path class="st6" d="M194.4,254.77v3.21l2.14,0.32c-0.02-0.19-0.05-0.36-0.05-0.67c0-0.68,0.14-1.3,0.45-1.81
				c0.37-0.69,1.11-1.21,2.18-1.21c1.64,0,2.88,1.3,2.88,3.12c0,0.93-0.25,1.69-0.51,2.1l-0.87-0.28c0.2-0.36,0.46-1.05,0.46-1.82
				c0-1.06-0.69-1.99-1.85-1.97c-1.11,0-1.87,0.73-1.87,2.41c0,0.49,0.02,0.86,0.09,1.17l-4.03-0.52v-4.04H194.4z"/>
		</g>
		<g>
			<path class="st6" d="M172.95,262.93h-2.3v3.91h-0.72l-5.4-3.77v-1.23h5.24v-1.17h0.88v1.17h2.3V262.93z M169.77,262.93h-2.81
				c-0.45,0-0.88-0.02-1.33-0.04v0.04c0.5,0.26,0.85,0.47,1.26,0.69l2.87,2.07h0.01V262.93z"/>
			<path class="st6" d="M173.1,257.11c0,1.65-1.55,2.78-4.32,2.8c-2.86,0-4.4-1.23-4.4-2.93c0-1.76,1.59-2.79,4.28-2.79
				C171.52,254.19,173.1,255.26,173.1,257.11L173.1,257.11z M172.22,257.05c0-1.14-1.36-1.69-3.52-1.69c-2.07,0-3.44,0.51-3.44,1.69
				c0,1.05,1.32,1.71,3.44,1.71c2.18,0.05,3.52-0.64,3.52-1.7V257.05z"/>
		</g>
		<g>
			<path class="st6" d="M144.05,262.93h-2.28v3.91h-0.74l-5.39-3.77v-1.23h5.25v-1.17h0.88v1.17h2.28V262.93z M140.89,262.93h-2.82
				c-0.45,0-0.89-0.02-1.33-0.04v0.04c0.49,0.26,0.86,0.47,1.26,0.69l2.86,2.07h0.03V262.93z"/>
			<path class="st6" d="M136.59,254.77v3.21l2.14,0.32c-0.02-0.19-0.05-0.36-0.05-0.67c0-0.68,0.15-1.3,0.46-1.81
				c0.36-0.69,1.1-1.21,2.2-1.21c1.63,0,2.87,1.3,2.87,3.12c0,0.93-0.26,1.69-0.53,2.1l-0.87-0.28c0.2-0.36,0.46-1.05,0.46-1.82
				c0-1.06-0.69-1.99-1.83-1.97c-1.12,0-1.87,0.73-1.87,2.41c0,0.49,0.02,0.86,0.08,1.17l-4.01-0.52v-4.04H136.59z"/>
		</g>
		<g>
			<path class="st6" d="M107.7,261.42v3.21l2.13,0.33c-0.02-0.18-0.04-0.38-0.04-0.68c0-0.67,0.14-1.3,0.44-1.81
				c0.37-0.66,1.11-1.21,2.21-1.21c1.62,0,2.87,1.31,2.87,3.13c0,0.92-0.27,1.68-0.52,2.1l-0.87-0.28c0.2-0.36,0.46-1.05,0.46-1.82
				c0-1.06-0.71-1.99-1.84-1.98c-1.11,0-1.87,0.74-1.87,2.4c0,0.5,0.02,0.87,0.08,1.18l-4.03-0.53v-4.04H107.7z"/>
			<path class="st6" d="M115.31,257.11c0,1.65-1.55,2.78-4.34,2.8c-2.84,0-4.38-1.23-4.38-2.93c0-1.76,1.59-2.79,4.27-2.79
				C113.73,254.19,115.31,255.26,115.31,257.11L115.31,257.11z M114.42,257.05c0-1.14-1.36-1.69-3.52-1.69
				c-2.06,0-3.44,0.51-3.44,1.69c0,1.05,1.34,1.71,3.44,1.71c2.2,0.05,3.52-0.64,3.52-1.7V257.05z"/>
		</g>
		<g>
			<path class="st6" d="M78.79,261.42v3.21l2.14,0.33c-0.03-0.18-0.05-0.38-0.05-0.68c0-0.67,0.13-1.3,0.45-1.81
				c0.38-0.66,1.11-1.21,2.19-1.21c1.65,0,2.88,1.31,2.88,3.13c0,0.92-0.27,1.68-0.53,2.1l-0.86-0.28c0.21-0.36,0.47-1.05,0.47-1.82
				c0-1.06-0.71-1.99-1.86-1.98c-1.1,0-1.86,0.74-1.86,2.4c0,0.5,0.04,0.87,0.09,1.18l-4.02-0.53v-4.04H78.79z"/>
			<path class="st6" d="M78.79,254.77v3.21l2.14,0.32c-0.03-0.19-0.05-0.36-0.05-0.67c0-0.68,0.13-1.3,0.45-1.81
				c0.38-0.69,1.11-1.21,2.19-1.21c1.65,0,2.88,1.3,2.88,3.12c0,0.93-0.27,1.69-0.53,2.1l-0.86-0.28c0.21-0.36,0.47-1.05,0.47-1.82
				c0-1.06-0.71-1.99-1.86-1.97c-1.1,0-1.86,0.73-1.86,2.41c0,0.49,0.04,0.86,0.09,1.17l-4.02-0.52v-4.04H78.79z"/>
		</g>
		<g>
			<path class="st6" d="M49.74,261.65c-0.03,0.23,0,0.52,0.07,0.85c0.28,1.8,1.57,2.74,2.98,2.93v-0.02
				c-0.54-0.41-0.98-1.13-0.98-2.05c0-1.49,1.09-2.54,2.71-2.54c1.57,0,2.99,1.05,2.99,2.8c0,1.79-1.41,2.98-3.59,2.98
				c-1.67,0-2.97-0.59-3.81-1.44c-0.69-0.69-1.11-1.62-1.24-2.67c-0.06-0.35-0.07-0.64-0.07-0.84H49.74z M56.62,263.59
				c0-0.96-0.81-1.62-2.02-1.62c-1.21,0-1.94,0.68-1.94,1.73c0,0.68,0.42,1.34,1.04,1.64c0.14,0.06,0.29,0.12,0.49,0.12
				c1.39-0.01,2.42-0.67,2.42-1.86V263.59z"/>
			<path class="st6" d="M57.5,257.11c0,1.65-1.55,2.78-4.33,2.8c-2.84,0-4.38-1.23-4.38-2.93c0-1.76,1.58-2.79,4.26-2.79
				C55.92,254.19,57.5,255.26,57.5,257.11L57.5,257.11z M56.62,257.05c0-1.14-1.35-1.69-3.51-1.69c-2.07,0-3.43,0.51-3.43,1.69
				c0,1.05,1.33,1.71,3.43,1.71c2.2,0.05,3.51-0.64,3.51-1.7V257.05z"/>
		</g>
		<g>
			<path class="st6" d="M21.12,261.65c-0.01,0.23,0.01,0.52,0.07,0.85c0.28,1.8,1.58,2.74,2.98,2.93v-0.02
				c-0.54-0.41-0.98-1.13-0.98-2.05c0-1.49,1.09-2.54,2.72-2.54c1.55,0,2.97,1.05,2.97,2.8c0,1.79-1.4,2.98-3.58,2.98
				c-1.67,0-2.98-0.59-3.83-1.44c-0.67-0.69-1.11-1.62-1.24-2.67c-0.05-0.35-0.06-0.64-0.06-0.84H21.12z M28.01,263.59
				c0-0.96-0.82-1.62-2.03-1.62c-1.2,0-1.92,0.68-1.92,1.73c0,0.68,0.42,1.34,1.03,1.64c0.14,0.06,0.28,0.12,0.5,0.12
				c1.38-0.01,2.42-0.67,2.42-1.86V263.59z"/>
			<path class="st6" d="M21.28,254.77v3.21l2.14,0.32c-0.04-0.19-0.05-0.36-0.05-0.67c0-0.68,0.13-1.3,0.45-1.81
				c0.37-0.69,1.1-1.21,2.2-1.21c1.64,0,2.87,1.3,2.87,3.12c0,0.93-0.25,1.69-0.51,2.1l-0.87-0.28c0.21-0.36,0.46-1.05,0.46-1.82
				c0-1.06-0.69-1.99-1.84-1.97c-1.12,0-1.88,0.73-1.88,2.41c0,0.49,0.04,0.86,0.1,1.17l-4.02-0.52v-4.04H21.28z"/>
		</g>
	</g>
</g>
</svg>
