<?xml version="1.0" encoding="utf-8"?>
<!-- Generator: Adobe Illustrator 24.1.2, SVG Export Plug-In . SVG Version: 6.00 Build 0)  -->
<svg version="1.1" id="Layer_1" xmlns="http://www.w3.org/2000/svg" xmlns:xlink="http://www.w3.org/1999/xlink" x="0px" y="0px"
	 viewBox="0 0 1920 617" style="enable-background:new 0 0 1920 617;" xml:space="preserve">
<style type="text/css">
	.st0{fill:#A7CAEB;}
	.st1{fill:#88B7E3;}
	.st2{fill:url(#SVGID_1_);}
	.st3{fill:url(#SVGID_2_);}
	.st4{fill:url(#SVGID_3_);}
	.st5{fill:url(#SVGID_4_);}
	.st6{fill:url(#SVGID_5_);}
	.st7{fill:url(#SVGID_6_);}
	.st8{fill:url(#SVGID_7_);}
	.st9{fill:url(#SVGID_8_);}
	.st10{fill:none;}
	.st11{fill:url(#SVGID_9_);}
	.st12{fill:url(#SVGID_10_);}
	.st13{fill:url(#SVGID_11_);}
	.st14{fill:url(#SVGID_12_);}
	.st15{fill:url(#SVGID_13_);}
	.st16{fill:#6D9DCC;}
	.st17{fill:#F2F2F2;}
	.st18{fill:#628DB8;}
	.st19{fill:#2C5682;}
</style>
<g>
	<g>
		<polygon class="st0" points="1476.1,316.22 1476.1,137.12 1466.71,137.12 1466.71,121.58 1421.23,121.58 1345.53,45.26 
			1269.82,121.58 1224.33,121.58 1224.33,137.12 1214.95,137.12 1214.95,603.86 1436.75,603.86 1436.75,608.78 1507.09,608.78 
			1507.09,316.22 		"/>
		<polygon class="st1" points="1476.1,316.22 1476.1,137.12 1466.71,137.12 1466.71,121.58 1421.23,121.58 1346.42,46.16 
			1346.42,603.86 1436.75,603.86 1436.75,608.78 1507.09,608.78 1507.09,316.22 		"/>
		<g>
			<linearGradient id="SVGID_1_" gradientUnits="userSpaceOnUse" x1="1397.678" y1="166.1776" x2="1479.1434" y2="166.1776">
				<stop  offset="0" style="stop-color:#F2F2EF"/>
				<stop  offset="0.4964" style="stop-color:#FAFAF5"/>
				<stop  offset="1" style="stop-color:#F2F2EE"/>
			</linearGradient>
			<rect x="1397.68" y="160.27" class="st2" width="81.47" height="11.82"/>
			<linearGradient id="SVGID_2_" gradientUnits="userSpaceOnUse" x1="1397.678" y1="198.6724" x2="1479.1434" y2="198.6724">
				<stop  offset="0" style="stop-color:#F2F2EF"/>
				<stop  offset="0.4964" style="stop-color:#FAFAF5"/>
				<stop  offset="1" style="stop-color:#F2F2EE"/>
			</linearGradient>
			<rect x="1397.68" y="192.76" class="st3" width="81.47" height="11.82"/>
			<linearGradient id="SVGID_3_" gradientUnits="userSpaceOnUse" x1="1397.678" y1="226.4411" x2="1479.1434" y2="226.4411">
				<stop  offset="0" style="stop-color:#F2F2EF"/>
				<stop  offset="0.4964" style="stop-color:#FAFAF5"/>
				<stop  offset="1" style="stop-color:#F2F2EE"/>
			</linearGradient>
			<rect x="1397.68" y="220.53" class="st4" width="81.47" height="11.82"/>
		</g>
	</g>
	<g>
		<polygon class="st0" points="545.81,161.31 545.81,179.2 535.93,179.2 535.93,216.54 513.56,216.54 513.56,240.84 504.77,240.84 
			504.77,608.78 575.1,608.78 575.1,603.86 602.17,603.86 602.17,161.31 		"/>
		<polygon class="st1" points="719.1,270.83 719.1,259.02 750.86,259.02 750.97,216.54 717.35,216.54 717.42,179.2 666.88,179.2 
			666.91,161.31 654.03,161.31 654.03,141.9 647.04,141.9 647.04,161.31 602.17,161.31 602.17,603.86 749.98,603.86 750.54,384.96 
			719.1,384.96 719.1,373.14 750.57,373.14 750.61,357.19 719.1,357.19 719.1,345.37 750.64,345.37 750.68,331.1 719.1,331.1 
			719.1,319.28 750.71,319.28 750.75,303.33 719.1,303.33 719.1,291.51 750.78,291.51 750.83,270.83 		"/>
		<polygon class="st1" points="719.1,270.83 750.83,270.83 750.86,259.02 719.1,259.02 		"/>
		<linearGradient id="SVGID_4_" gradientUnits="userSpaceOnUse" x1="719.0986" y1="264.925" x2="759.8309" y2="264.925">
			<stop  offset="0" style="stop-color:#F2F2EF"/>
			<stop  offset="0.4964" style="stop-color:#FAFAF5"/>
			<stop  offset="1" style="stop-color:#F2F2EE"/>
		</linearGradient>
		<polygon class="st5" points="719.1,270.83 750.83,270.83 750.86,259.02 719.1,259.02 		"/>
		<polygon class="st1" points="719.1,303.33 750.75,303.33 750.78,291.51 719.1,291.51 		"/>
		<linearGradient id="SVGID_5_" gradientUnits="userSpaceOnUse" x1="719.0986" y1="297.4196" x2="759.8307" y2="297.4196">
			<stop  offset="0" style="stop-color:#F2F2EF"/>
			<stop  offset="0.4964" style="stop-color:#FAFAF5"/>
			<stop  offset="1" style="stop-color:#F2F2EE"/>
		</linearGradient>
		<polygon class="st6" points="719.1,303.33 750.75,303.33 750.78,291.51 719.1,291.51 		"/>
		<polygon class="st1" points="719.1,331.1 750.68,331.1 750.71,319.28 719.1,319.28 		"/>
		<linearGradient id="SVGID_6_" gradientUnits="userSpaceOnUse" x1="719.0986" y1="325.188" x2="759.8309" y2="325.188">
			<stop  offset="0" style="stop-color:#F2F2EF"/>
			<stop  offset="0.4964" style="stop-color:#FAFAF5"/>
			<stop  offset="1" style="stop-color:#F2F2EE"/>
		</linearGradient>
		<polygon class="st7" points="719.1,331.1 750.68,331.1 750.71,319.28 719.1,319.28 		"/>
		<polygon class="st1" points="719.1,357.19 750.61,357.19 750.64,345.37 719.1,345.37 		"/>
		<linearGradient id="SVGID_7_" gradientUnits="userSpaceOnUse" x1="719.0986" y1="351.2811" x2="759.8308" y2="351.2811">
			<stop  offset="0" style="stop-color:#F2F2EF"/>
			<stop  offset="0.4964" style="stop-color:#FAFAF5"/>
			<stop  offset="1" style="stop-color:#F2F2EE"/>
		</linearGradient>
		<polygon class="st8" points="719.1,357.19 750.61,357.19 750.64,345.37 719.1,345.37 		"/>
		<polygon class="st1" points="719.1,384.96 750.54,384.96 750.57,373.14 719.1,373.14 		"/>
		<linearGradient id="SVGID_8_" gradientUnits="userSpaceOnUse" x1="719.0986" y1="379.0493" x2="759.8307" y2="379.0493">
			<stop  offset="0" style="stop-color:#F2F2EF"/>
			<stop  offset="0.4964" style="stop-color:#FAFAF5"/>
			<stop  offset="1" style="stop-color:#F2F2EE"/>
		</linearGradient>
		<polygon class="st9" points="719.1,384.96 750.54,384.96 750.57,373.14 719.1,373.14 		"/>
	</g>
	<polygon class="st0" points="956.79,131.32 956.79,115.84 885.87,115.84 885.87,80.1 806.08,80.1 806.08,131.32 777.13,131.32 
		777.13,619.17 968.41,619.17 968.41,131.32 	"/>
	<g>
		<polygon class="st1" points="968.41,131.32 956.79,131.32 956.79,115.84 885.87,115.84 885.87,80.1 845.82,80.1 845.82,619.17 
			968.41,619.17 		"/>
	</g>
	<rect x="392.03" y="521.58" class="st0" width="1320.41" height="97.1"/>
	<rect x="848.74" y="419.7" class="st1" width="155.38" height="190.1"/>
	<polygon class="st0" points="1878.97,317.47 1878.97,223.52 1832.01,223.52 1832.01,211.12 1811.95,211.12 1811.95,180.11 
		1700.81,180.11 1700.81,211.12 1680.75,211.12 1680.75,223.52 1663.39,223.52 1663.39,317.47 1680.75,317.47 1680.75,333.62 
		1663.39,333.62 1663.39,427.56 1680.75,427.56 1680.75,443.71 1663.39,443.71 1663.39,537.65 1680.75,537.65 1680.75,605 
		1832.01,605 1832.01,537.65 1878.97,537.65 1878.97,443.71 1832.01,443.71 1832.01,427.56 1878.97,427.56 1878.97,333.62 
		1832.01,333.62 1832.01,317.47 	"/>
	<polygon class="st0" points="480.37,425.86 480.37,337.59 469.96,337.59 469.96,248.61 462.98,248.61 462.98,260.48 428.48,260.48 
		428.48,197.78 425.58,197.78 425.58,192.48 418.49,192.48 418.49,179.88 415.31,179.88 415.31,192.48 406.57,192.48 406.57,197.78 
		385.07,197.78 385.07,260.48 350.71,260.48 350.71,248.61 343.72,248.61 343.72,337.59 337.33,337.59 337.33,425.86 286.9,425.86 
		286.9,608.78 337.33,608.78 480.37,608.78 495.28,608.78 495.28,425.86 	"/>
	<rect x="36.98" y="589.2" class="st0" width="191.41" height="27.83"/>
	<rect x="1065.77" y="362.1" class="st1" width="151.26" height="256.58"/>
	<rect x="1169.24" y="254.04" class="st1" width="47.79" height="354.75"/>
	<rect x="1696.11" y="589.2" class="st0" width="203.73" height="27.83"/>
	<polygon class="st0" points="266.55,340.94 266.55,315.23 258.65,315.23 258.65,275.99 244.51,275.99 244.51,261.77 238.8,261.77 
		238.8,275.99 228.59,275.99 228.59,257.84 165.64,257.84 165.64,275.99 155.62,275.99 155.62,315.23 148.77,315.23 148.77,340.94 
		155.62,340.94 155.62,350.19 148.77,350.19 148.77,375.9 155.62,375.9 155.62,384.57 148.77,384.57 148.77,410.28 155.62,410.28 
		155.62,419.7 148.77,419.7 148.77,445.41 155.62,445.41 155.62,454.66 148.77,454.66 148.77,480.37 155.62,480.37 155.62,489.05 
		148.77,489.05 148.77,514.75 155.62,514.75 155.62,522.72 165.64,522.72 165.64,590.64 228.59,590.64 228.59,522.72 238.8,522.72 
		238.8,551.86 244.51,551.86 244.51,522.72 258.65,522.72 258.65,514.75 266.55,514.75 266.55,489.05 258.65,489.05 258.65,480.37 
		266.55,480.37 266.55,454.66 258.65,454.66 258.65,445.41 266.55,445.41 266.55,419.7 258.65,419.7 258.65,410.28 266.55,410.28 
		266.55,384.57 258.65,384.57 258.65,375.9 266.55,375.9 266.55,350.19 258.65,350.19 258.65,340.94 	"/>
	<polygon class="st0" points="128.67,480.63 42.75,480.63 42.75,261.65 128.67,232.21 	"/>
	<g>
		<rect x="1555.27" y="341.61" class="st10" width="35.87" height="10.93"/>
		<path class="st0" d="M1643.04,378.61h-18.48v-18.82h-16.65v-7.25h-4.17v-10.93v-27h7.51v-21.53h6.94v-15.1h-6.94v-11.46h8.8V251.4
			h-8.8v-11.47h8.8v-15.1h-8.8v-11.46h6.94v-15.12h-6.94v-28.45h-7.51v-16.78l-12.6-4.77v21.55h-2.03l-12.37-64.25h-7.05
			l-12.37,64.25h-2.05v-21.55l-12.58,4.77v16.78h-7.52v28.45h-6.94v15.12h6.94v11.46h-8.8v15.1h8.8v11.47h-8.8v15.12h8.8v11.46
			h-6.94v15.1h6.94v21.53h7.52v27v10.93h-4.17v7.25h-16.65v18.82h-18.48v179.07h18.48v51.1h102.69v-51.1h18.48V378.61z
			 M1555.27,341.61h35.87v10.93h-35.87V341.61z"/>
	</g>
	<g>
		<polygon class="st0" points="1123.53,120.62 1123.53,56.15 1105.78,56.15 1105.78,52.64 1114,52.64 1114,47 1105.78,47 
			1105.78,42.71 1114,42.71 1114,37.07 1105.78,37.07 1105.78,32.79 1114,32.79 1114,27.15 1105.78,27.15 1105.78,22.87 1114,22.87 
			1114,17.22 1105.78,17.22 1105.78,6.58 1100.79,6.58 1100.79,-0.36 1040.84,-0.36 1040.84,6.58 1034.72,6.58 1034.72,17.22 
			1026.48,17.22 1026.48,22.87 1034.72,22.87 1034.72,27.15 1026.48,27.15 1026.48,32.79 1034.72,32.79 1034.72,37.07 
			1026.48,37.07 1026.48,42.71 1034.72,42.71 1034.72,47 1026.48,47 1026.48,52.64 1034.72,52.64 1034.72,56.15 1018.08,56.15 
			1018.08,120.62 1003.85,120.62 1003.85,613.84 1137.77,613.84 1137.77,120.62 		"/>
		<polygon class="st1" points="1123.53,120.62 1123.53,56.15 1105.78,56.15 1105.78,52.64 1114,52.64 1114,47 1105.78,47 
			1105.78,42.71 1114,42.71 1114,37.07 1105.78,37.07 1105.78,32.79 1114,32.79 1114,27.15 1105.78,27.15 1105.78,22.87 1114,22.87 
			1114,17.22 1105.78,17.22 1105.78,6.58 1100.79,6.58 1100.79,-0.36 1069.45,-0.36 1069.45,613.84 1137.77,613.84 1137.77,120.62 
					"/>
		<g>
			<linearGradient id="SVGID_9_" gradientUnits="userSpaceOnUse" x1="992.4835" y1="114.1836" x2="1079.8904" y2="114.1836">
				<stop  offset="0" style="stop-color:#F2F2EF"/>
				<stop  offset="0.4964" style="stop-color:#FAFAF5"/>
				<stop  offset="1" style="stop-color:#F2F2EE"/>
			</linearGradient>
			<rect x="1060.58" y="104.45" class="st11" width="19.31" height="19.47"/>
			<linearGradient id="SVGID_10_" gradientUnits="userSpaceOnUse" x1="992.4835" y1="145.9563" x2="1079.8904" y2="145.9563">
				<stop  offset="0" style="stop-color:#F2F2EF"/>
				<stop  offset="0.4964" style="stop-color:#FAFAF5"/>
				<stop  offset="1" style="stop-color:#F2F2EE"/>
			</linearGradient>
			<rect x="1060.58" y="136.22" class="st12" width="19.31" height="19.47"/>
			<linearGradient id="SVGID_11_" gradientUnits="userSpaceOnUse" x1="992.4835" y1="177.7292" x2="1079.8904" y2="177.7292">
				<stop  offset="0" style="stop-color:#F2F2EF"/>
				<stop  offset="0.4964" style="stop-color:#FAFAF5"/>
				<stop  offset="1" style="stop-color:#F2F2EE"/>
			</linearGradient>
			<rect x="1060.58" y="168" class="st13" width="19.31" height="19.47"/>
			<linearGradient id="SVGID_12_" gradientUnits="userSpaceOnUse" x1="992.4835" y1="209.502" x2="1079.8904" y2="209.502">
				<stop  offset="0" style="stop-color:#F2F2EF"/>
				<stop  offset="0.4964" style="stop-color:#FAFAF5"/>
				<stop  offset="1" style="stop-color:#F2F2EE"/>
			</linearGradient>
			<rect x="1060.58" y="199.77" class="st14" width="19.31" height="19.47"/>
			<linearGradient id="SVGID_13_" gradientUnits="userSpaceOnUse" x1="992.4835" y1="241.2747" x2="1079.8904" y2="241.2747">
				<stop  offset="0" style="stop-color:#F2F2EF"/>
				<stop  offset="0.4964" style="stop-color:#FAFAF5"/>
				<stop  offset="1" style="stop-color:#F2F2EE"/>
			</linearGradient>
			<rect x="1060.58" y="231.54" class="st15" width="19.31" height="19.47"/>
		</g>
	</g>
	<polygon class="st1" points="1878.97,179.42 1878.97,85.48 1832.01,85.48 1832.01,73.08 1811.95,73.08 1811.95,42.07 
		1760.82,42.07 1760.82,466.95 1832.01,466.95 1832.01,399.61 1878.97,399.61 1878.97,305.66 1832.01,305.66 1832.01,289.51 
		1878.97,289.51 1878.97,195.57 1832.01,195.57 1832.01,179.42 	"/>
	<polygon class="st1" points="480.37,425.86 480.37,337.59 469.96,337.59 469.96,248.61 462.98,248.61 462.98,260.48 428.48,260.48 
		428.48,197.78 425.58,197.78 425.58,192.48 418.49,192.48 418.49,179.88 415.31,179.88 415.31,192.48 407.13,192.48 407.13,608.78 
		480.37,608.78 495.28,608.78 495.28,425.86 	"/>
	<polygon class="st1" points="266.55,340.94 266.55,315.23 258.65,315.23 258.65,275.99 244.51,275.99 244.51,261.77 238.8,261.77 
		238.8,275.99 228.59,275.99 228.59,257.84 198.8,257.84 198.8,590.64 228.59,590.64 228.59,522.72 238.8,522.72 238.8,551.86 
		244.51,551.86 244.51,522.72 258.65,522.72 258.65,514.75 266.55,514.75 266.55,489.05 258.65,489.05 258.65,480.37 266.55,480.37 
		266.55,454.66 258.65,454.66 258.65,445.41 266.55,445.41 266.55,419.7 258.65,419.7 258.65,410.28 266.55,410.28 266.55,384.57 
		258.65,384.57 258.65,375.9 266.55,375.9 266.55,350.19 258.65,350.19 258.65,340.94 	"/>
	<polygon class="st1" points="90.21,245.39 90.21,480.63 128.67,480.63 128.67,232.21 	"/>
	<g>
		<g>
			<path class="st16" d="M1578.44,473.33h16.66v-8.94h-17.73h-19.22l-25.11-11.06v-20.22h-26.6v8.51l-53.89-23.73l-61.36,26.65
				v-11.43h-22.16v21.06l-23.53,10.22h-16.37h-22.16v8.94h17.95h4.21v35.75h-22.16v40.22h22.16v26.81h-22.16v8.94h22.16v31.28
				h248.23h4.43v-31.28h13.3v-8.94h-17.73v-26.81h17.73v-40.22h-17.73v-35.75H1578.44z M1457.69,518.01h62.06v17.87h-62.06V518.01z
				 M1448.82,535.88h-62.06v-17.87h62.06V535.88z M1386.76,567.16h62.06v17.87h-62.06V567.16z M1519.75,585.04h-62.06v-17.87h62.06
				V585.04z M1448.82,495.67h-62.06v-17.87h62.06V495.67z M1457.69,477.79h62.06v17.87h-62.06V477.79z"/>
			<rect x="1386.76" y="477.79" class="st17" width="62.06" height="17.87"/>
			<rect x="1457.69" y="477.79" class="st17" width="62.06" height="17.87"/>
			<rect x="1457.69" y="518.01" class="st17" width="62.06" height="17.87"/>
			<rect x="1386.76" y="518.01" class="st17" width="62.06" height="17.87"/>
			<rect x="1457.69" y="567.16" class="st17" width="62.06" height="17.87"/>
			<rect x="1386.76" y="567.16" class="st17" width="62.06" height="17.87"/>
		</g>
		<g>
			<path class="st16" d="M952.36,508.32v-84.15h-41.37l-46.15-93.88l-95.62,196.66h10.27v62.56h-4.43v26.81h4.43h177.31v-26.81
				v-62.56h4.72L952.36,508.32z M934.63,446.51v49.15h-22.16v-49.15H934.63z M859.27,428.64h22.16v17.87h-22.16V428.64z
				 M859.27,473.33h22.16v13.41h-22.16V473.33z M859.27,562.7h22.16v17.87h-22.16V562.7z M859.27,526.95v-13.41h22.16v13.41H859.27z
				"/>
			<rect x="859.27" y="513.54" class="st17" width="22.16" height="13.41"/>
			<rect x="859.27" y="562.7" class="st17" width="22.16" height="17.87"/>
			<rect x="859.27" y="473.33" class="st17" width="22.16" height="13.41"/>
			<rect x="912.46" y="446.51" class="st17" width="22.16" height="49.15"/>
			<rect x="859.27" y="428.64" class="st17" width="22.16" height="17.87"/>
		</g>
		<g>
			<path class="st16" d="M702.06,486.73h2.07v-22.34h-34.39l-31.85-22.02l-31.49,22.02h-30.82v21.55l-39.48,27.6h4.02v13.41v53.62
				v35.75h199.47v-35.75v-53.62v-13.41h1.25L702.06,486.73z M655.37,589.51h-31.03v-31.28h31.03V589.51z M655.37,526.95h-31.03
				v-31.28h31.03V526.95z"/>
			<rect x="624.34" y="495.67" class="st17" width="31.03" height="31.28"/>
			<rect x="624.34" y="558.23" class="st17" width="31.03" height="31.28"/>
		</g>
		<g>
			<path class="st16" d="M1861.06,558.23v-62.56h6.2l-28.36-19.61v-11.67h-8.87h-8.02l-23.94-16.55l-23.67,16.55h-17.47v-11.35
				c5.6-0.61,9.99-5.08,9.99-10.56c0-5.91-5.06-10.69-11.28-10.69c-6.25,0-11.29,4.78-11.29,10.69c0,5.47,4.36,9.94,9.98,10.56
				v11.35h-24.11v-14.85c7.06-0.77,12.58-6.4,12.58-13.3c0-7.44-6.37-13.46-14.2-13.46c-7.87,0-14.22,6.02-14.22,13.46
				c0,6.89,5.49,12.52,12.57,13.3v14.85h-3.44l-23.94-16.55l-23.67,16.55h-18.71v13.09l-26.02,18.19h3.86v120.65h101.95h26.6h26.6
				h70.92h53.19v-58.09H1861.06z M1812.3,518.01h-9.73v-1.04c3.49-0.38,6.21-3.16,6.21-6.57c0-3.67-3.14-6.64-7.01-6.64
				c-3.89,0-7.02,2.97-7.02,6.64c0,3.4,2.71,6.18,6.2,6.57v1.04h-15.25v-31.28h26.6V518.01z M1723.65,585.04h-39.89v-26.81h39.89
				V585.04z M1683.76,518.01v-31.28h39.89v31.28H1683.76z M1812.3,585.04h-26.6v-26.81h4.43h22.16V585.04z"/>
			<rect x="1683.76" y="486.73" class="st17" width="39.89" height="31.28"/>
			<path class="st17" d="M1785.71,486.73v31.28h15.25v-1.04c-3.5-0.39-6.2-3.16-6.2-6.57c0-3.67,3.13-6.64,7.02-6.64
				c3.87,0,7.01,2.97,7.01,6.64c0,3.41-2.72,6.19-6.21,6.57v1.04h9.73v-31.28H1785.71z"/>
			<rect x="1683.76" y="558.23" class="st17" width="39.89" height="26.81"/>
			<polygon class="st17" points="1785.71,558.23 1785.71,585.04 1812.3,585.04 1812.3,558.23 1790.14,558.23 			"/>
		</g>
		<g>
			<path class="st16" d="M461.32,535.88l-0.99-0.92v-3.55h-3.8l-31.66-29.51v-15.18h-16.28l-19.18-17.87H188.19l-19.03,17.87h-14.69
				v13.8l-32.88,30.89h-2.58h-4.43v22.34h4.43v31.28h-4.43v31.28h4.43h341.32v-31.28v-31.28v-17.87H461.32z M204.77,502.73
				c6.27,0,11.36,5.13,11.36,11.45c0,6.32-5.09,11.45-11.36,11.45c-6.27,0-11.36-5.13-11.36-11.45
				C193.41,507.86,198.5,502.73,204.77,502.73z M392.49,514.18c0,6.32-5.08,11.44-11.35,11.44c-6.27,0-11.35-5.12-11.35-11.44
				c0-6.32,5.08-11.44,11.35-11.44C387.41,502.75,392.49,507.87,392.49,514.18z M163.33,585.04v-31.28h13.3v31.28H163.33z
				 M189.93,585.04v-31.28h17.73v31.28H189.93z M225.39,585.04v-31.28h26.6v31.28H225.39z M353.94,598.44h-13.3v-13.41h13.3V598.44z
				 M393.84,558.23h-13.3v-8.94h13.3V558.23z M353.94,558.23h-13.3v-8.94h13.3V558.23z M393.84,593.98h-13.3v-8.94h13.3V593.98z
				 M424.86,598.44h-17.73v-13.41h17.73V598.44z M424.86,558.23h-17.73v-8.94h17.73V558.23z M314.05,602.91h-44.33v-67.03h44.33
				V602.91z"/>
			<rect x="163.33" y="553.76" class="st17" width="13.3" height="31.28"/>
			<rect x="189.93" y="553.76" class="st17" width="17.73" height="31.28"/>
			<rect x="225.39" y="553.76" class="st17" width="26.6" height="31.28"/>
			<rect x="269.72" y="535.88" class="st17" width="44.33" height="67.03"/>
			<rect x="340.64" y="549.29" class="st17" width="13.3" height="8.94"/>
			<rect x="380.54" y="549.29" class="st17" width="13.3" height="8.94"/>
			<rect x="407.13" y="549.29" class="st17" width="17.73" height="8.94"/>
			<rect x="340.64" y="585.04" class="st17" width="13.3" height="13.41"/>
			<rect x="380.54" y="585.04" class="st17" width="13.3" height="8.94"/>
			<rect x="407.13" y="585.04" class="st17" width="17.73" height="13.41"/>
			<path class="st17" d="M204.77,525.63c6.27,0,11.36-5.13,11.36-11.45c0-6.32-5.09-11.45-11.36-11.45
				c-6.27,0-11.36,5.13-11.36,11.45C193.41,520.51,198.5,525.63,204.77,525.63z"/>
			<path class="st17" d="M381.15,502.75c-6.27,0-11.35,5.12-11.35,11.44c0,6.32,5.08,11.44,11.35,11.44
				c6.27,0,11.35-5.12,11.35-11.44C392.49,507.87,387.41,502.75,381.15,502.75z"/>
		</g>
		<g>
			<polygon class="st18" points="448.61,589.7 429.87,589.7 437.63,410.28 440.86,410.28 			"/>
			<g>
				<path class="st18" d="M441.15,407.98c0.91-2.64,3.15-10.13,3.18-13.08c0,0-2.41-37.6-3.93-37.62l-1.16-0.01
					c-1.53-0.02-4.69,37.54-4.69,37.54c-0.02,3.05,2.12,10.76,3.03,13.45c1.06-0.79,0.76-1.26,2.01-1.24
					C440.67,407.03,440.22,407.37,441.15,407.98z"/>
				<path class="st18" d="M441.65,415.99c1.59,2.29,6.33,8.5,8.68,10.23c0,0,31.72,19.96,32.62,18.71l0.68-0.93
					c0.91-1.24-27.53-25.72-27.53-25.72c-2.44-1.81-9.91-4.53-12.62-5.35c0.02,1.33,0.57,1.36-0.16,2.36
					C442.69,416.15,442.69,415.6,441.65,415.99z"/>
				<path class="st18" d="M435.73,412.36c-2.72,0.52-10.29,2.29-12.84,3.72c0,0-31.15,20.87-30.39,22.19l0.55,1.02
					c0.75,1.34,34.62-14.61,34.62-14.61c2.64-1.5,8.19-7.21,10.06-9.35c-1.2-0.53-1.45-0.04-2.06-1.15
					C435.15,413.25,435.66,413.49,435.73,412.36z"/>
				<path class="st18" d="M447.5,413.45c0.05-4.49-3.53-8.18-8-8.22c-4.45-0.05-8.11,3.56-8.15,8.05c-0.04,4.49,3.54,8.17,8,8.23
					C443.81,421.55,447.46,417.94,447.5,413.45z"/>
			</g>
		</g>
		<path class="st16" d="M97.33,552.07l-40.99-33.54l-26.43,20.85l-2.01-46.62c0.63-0.16,1.19-0.42,1.68-0.82
			c1.11,1.42,2.44,3.01,3.27,3.62c0,0,17.46,10.99,17.96,10.3l0.38-0.51c0.5-0.68-15.16-14.16-15.16-14.16
			c-0.91-0.67-3.06-1.56-4.83-2.22c0.02-0.15,0.09-0.29,0.09-0.44c0.02-2.01-1.3-3.66-3.1-4.25c0.57-1.85,1.34-4.67,1.35-5.96
			c0,0-1.33-20.7-2.16-20.71l-0.64,0c-0.84-0.01-2.58,20.67-2.58,20.67c-0.01,1.3,0.69,4.12,1.24,6.02c-1.72,0.6-2.99,2.2-3.01,4.15
			c0,0.01,0.01,0.02,0.01,0.03c-1.74,0.43-3.77,1.01-4.66,1.51c0,0-17.15,11.49-16.74,12.22l0.31,0.56
			c0.41,0.74,19.06-8.04,19.06-8.04c0.86-0.48,2.24-1.76,3.47-2.98c0.49,0.46,1.1,0.77,1.76,0.97l-2.24,51.84l-9.54,7.53h2.29v60.99
			h79.41v-60.99H97.33z"/>
		<g>
			<polygon class="st10" points="1262.65,531.03 1262.65,522.48 1254.16,522.48 			"/>
			<path class="st16" d="M1265.38,509.07h-29.32v-44.69h6.9l-33.5-23.16v-17.05h-24.67l-40.2-27.79l-39.74,27.79h-19.51v13.64
				l-31.62,22.11l-3.85,2.69l-2.54,1.78h2.54v31.28h-35.46v116.18h31.03h4.43h62.06h124.12v-22.13c2.16,1.48,4.72,2.42,7.51,2.72
				v19.18h3.7v-19.18c7.97-0.87,14.2-7.23,14.2-15.02c0-8.4-7.2-15.19-16.03-15.19c-3.52,0-6.74,1.09-9.38,2.9v-42.66h11.39
				l15.21,15.33v74.04h13.3v-89.37h1.1L1265.38,509.07z M1142.96,446.51h8.87v31.28h-8.87V446.51z M1142.96,589.51V562.7h8.87v26.81
				H1142.96z M1151.83,531.42h-8.87v-31.28h8.87V531.42z M1262.65,531.03l-8.48-8.55h8.48V531.03z"/>
			<rect x="1142.96" y="446.51" class="st17" width="8.87" height="31.28"/>
			<rect x="1142.96" y="500.14" class="st17" width="8.87" height="31.28"/>
			<rect x="1142.96" y="562.7" class="st17" width="8.87" height="26.81"/>
		</g>
		<g>
			<polygon class="st10" points="1262.65,531.03 1262.65,522.48 1254.16,522.48 			"/>
			<path class="st18" d="M1265.38,509.07h-29.32v-44.69h6.9l-33.5-23.16v-17.05h-24.67l-37.39-25.85v48.19h4.43v31.28h-4.43v22.34
				h4.43v31.28h-4.43v31.28h4.43v26.81h-4.43v22.34h88.65v-22.13c2.16,1.48,4.72,2.42,7.51,2.72v19.18h3.7v-19.18
				c7.97-0.87,14.2-7.23,14.2-15.02c0-8.4-7.2-15.19-16.03-15.19c-3.52,0-6.74,1.09-9.38,2.9v-42.66h11.39l15.21,15.33v74.04h13.3
				v-89.37h1.1L1265.38,509.07z M1262.65,531.03l-8.48-8.55h8.48V531.03z"/>
			<rect x="1147.4" y="446.51" class="st17" width="4.43" height="31.28"/>
			<rect x="1147.4" y="500.14" class="st17" width="4.43" height="31.28"/>
			<rect x="1147.4" y="562.7" class="st17" width="4.43" height="26.81"/>
		</g>
		<g>
			<path class="st18" d="M952.36,508.32v-84.15h-41.37l-45.63-92.81v97.28h16.07v17.87h-16.07v26.81h16.07v13.41h-16.07v26.81h16.07
				v13.41h-16.07v35.75h16.07v17.87h-16.07v35.75h91.43v-26.81v-62.56h4.72L952.36,508.32z M934.63,495.67h-22.16v-49.15h22.16
				V495.67z"/>
			<rect x="865.36" y="513.54" class="st17" width="16.07" height="13.41"/>
			<rect x="865.36" y="562.7" class="st17" width="16.07" height="17.87"/>
			<rect x="865.36" y="473.33" class="st17" width="16.07" height="13.41"/>
			<rect x="912.46" y="446.51" class="st17" width="22.16" height="49.15"/>
			<rect x="865.36" y="428.64" class="st17" width="16.07" height="17.87"/>
		</g>
		<g>
			<polygon class="st18" points="702.06,486.73 704.13,486.73 704.13,464.39 669.74,464.39 638.6,442.86 638.6,469.7 638.6,487.57 
				638.6,495.67 655.37,495.67 655.37,526.95 638.6,526.95 638.6,527.79 638.6,554.6 638.6,558.23 655.37,558.23 655.37,589.51 
				638.6,589.51 638.6,603.75 638.6,616.32 739.59,616.32 739.59,580.57 739.59,526.95 739.59,513.54 740.84,513.54 			"/>
			<polygon class="st17" points="638.6,526.95 655.37,526.95 655.37,495.67 638.6,495.67 638.6,514.38 			"/>
			<polygon class="st17" points="638.6,589.51 655.37,589.51 655.37,558.23 638.6,558.23 638.6,568.01 			"/>
		</g>
		<g>
			<path class="st18" d="M460.33,534.96v-3.55h-3.8l-31.66-29.51v-15.18h-16.28l-19.18-17.87h-97.52v67.03h22.16v67.03h-22.16v13.41
				h168.44v-31.28v-31.28v-17.87h0.99L460.33,534.96z M353.94,598.44h-13.3v-13.41h13.3V598.44z M353.94,558.23h-13.3v-8.94h13.3
				V558.23z M369.8,514.18c0-6.32,5.08-11.44,11.35-11.44c6.27,0,11.35,5.12,11.35,11.44c0,6.32-5.08,11.44-11.35,11.44
				C374.88,525.62,369.8,520.5,369.8,514.18z M393.84,593.98h-13.3v-8.94h13.3V593.98z M393.84,558.23h-13.3v-8.94h13.3V558.23z
				 M424.86,598.44h-17.73v-13.41h17.73V598.44z M424.86,558.23h-17.73v-8.94h17.73V558.23z"/>
			<rect x="291.88" y="535.88" class="st17" width="22.16" height="67.03"/>
			<rect x="340.64" y="549.29" class="st17" width="13.3" height="8.94"/>
			<rect x="380.54" y="549.29" class="st17" width="13.3" height="8.94"/>
			<rect x="407.13" y="549.29" class="st17" width="17.73" height="8.94"/>
			<rect x="340.64" y="585.04" class="st17" width="13.3" height="13.41"/>
			<rect x="380.54" y="585.04" class="st17" width="13.3" height="8.94"/>
			<rect x="407.13" y="585.04" class="st17" width="17.73" height="13.41"/>
			<path class="st17" d="M392.49,514.18c0-6.32-5.08-11.44-11.35-11.44c-6.27,0-11.35,5.12-11.35,11.44
				c0,6.32,5.08,11.44,11.35,11.44C387.41,525.62,392.49,520.5,392.49,514.18z"/>
		</g>
		<g>
			<polygon class="st18" points="57.03,519.09 57.03,613.05 95.52,613.05 95.52,552.07 97.33,552.07 			"/>
		</g>
		<g>
			<path class="st18" d="M1578.44,473.33h16.66v-8.94h-17.73h-19.22l-25.11-11.06v-20.22h-26.6v8.51l-53.19-23.43v198.13h124.12
				h4.43v-31.28h13.3v-8.94h-17.73v-26.81h17.73v-40.22h-17.73v-35.75H1578.44z M1519.75,585.04h-62.06v-17.87h62.06V585.04z
				 M1519.75,535.88h-62.06v-17.87h62.06V535.88z M1519.75,495.67h-62.06v-17.87h62.06V495.67z"/>
			<rect x="1457.69" y="477.79" class="st17" width="62.06" height="17.87"/>
			<rect x="1457.69" y="518.01" class="st17" width="62.06" height="17.87"/>
			<rect x="1457.69" y="567.16" class="st17" width="62.06" height="17.87"/>
		</g>
		<g>
			<path class="st18" d="M1861.06,558.23v-62.56h6.2l-28.36-19.61v-11.67h-8.87h-8.02l-23.94-16.55l-23.67,16.55h-0.58v151.93h16.32
				h70.92h53.19v-58.09H1861.06z M1812.3,585.04h-26.6v-26.81h4.43h22.16V585.04z M1812.3,518.01h-9.73v-1.04
				c3.49-0.38,6.21-3.16,6.21-6.57c0-3.67-3.14-6.64-7.01-6.64c-3.89,0-7.02,2.97-7.02,6.64c0,3.4,2.71,6.18,6.2,6.57v1.04h-15.25
				v-31.28h26.6V518.01z"/>
			<path class="st17" d="M1785.71,518.01h15.25v-1.04c-3.5-0.39-6.2-3.16-6.2-6.57c0-3.67,3.13-6.64,7.02-6.64
				c3.87,0,7.01,2.97,7.01,6.64c0,3.41-2.72,6.19-6.21,6.57v1.04h9.73v-31.28h-26.6V518.01z"/>
			<polygon class="st17" points="1785.71,558.23 1785.71,585.04 1812.3,585.04 1812.3,558.23 1790.14,558.23 			"/>
		</g>
		<rect x="1753.65" y="464.39" class="st18" width="20.16" height="154.29"/>
	</g>
	<g>
		<rect x="157.61" y="597.97" class="st19" width="75.62" height="21.14"/>
		<rect x="26.89" y="611.76" class="st19" width="1894.11" height="7.95"/>
		<rect x="8.72" y="605.49" class="st19" width="68.47" height="14.44"/>
		<g>
			<rect x="530.87" y="581.8" class="st19" width="5.08" height="35.2"/>
			<rect x="532.19" y="599.35" class="st19" width="63.74" height="5.12"/>
			<rect x="532.19" y="590.85" class="st19" width="63.74" height="5.12"/>
			<rect x="532.19" y="581.75" class="st19" width="63.74" height="5.12"/>
			<rect x="590.81" y="581.8" class="st19" width="6.01" height="35.2"/>
		</g>
		<g>
			<rect x="240.79" y="581.8" class="st19" width="5.08" height="35.2"/>
			<rect x="242.11" y="599.35" class="st19" width="63.74" height="5.12"/>
			<rect x="242.11" y="590.85" class="st19" width="63.74" height="5.12"/>
			<rect x="242.11" y="581.75" class="st19" width="63.74" height="5.12"/>
			<rect x="300.72" y="581.8" class="st19" width="6.01" height="35.2"/>
		</g>
		<g>
			<rect x="1581.92" y="581.8" class="st19" width="5.08" height="35.2"/>
			<rect x="1583.24" y="599.35" class="st19" width="63.74" height="5.12"/>
			<rect x="1381.22" y="599.35" class="st19" width="63.74" height="5.12"/>
			<rect x="1583.24" y="590.85" class="st19" width="63.74" height="5.12"/>
			<rect x="1583.24" y="581.75" class="st19" width="63.74" height="5.12"/>
			<rect x="1641.86" y="581.8" class="st19" width="6.01" height="35.2"/>
			<rect x="1379.13" y="590.85" class="st19" width="63.74" height="5.12"/>
			<rect x="1379.13" y="581.75" class="st19" width="63.74" height="5.12"/>
			<rect x="1378.49" y="581.8" class="st19" width="6.01" height="35.2"/>
		</g>
		<rect x="719.85" y="594.71" class="st19" width="226.51" height="17.63"/>
		<rect x="732.03" y="586.46" class="st19" width="113.79" height="17.63"/>
		<rect x="921.78" y="605.1" class="st19" width="126.57" height="12.9"/>
		<rect x="48.04" y="585.58" class="st19" width="126.57" height="32.42"/>
		<rect x="1580.26" y="556.13" class="st19" width="17.48" height="61.87"/>
		<rect x="1845.84" y="570.03" class="st19" width="17.48" height="47.97"/>
		<rect x="664.09" y="584.44" class="st19" width="46.08" height="34.67"/>
		<polyline class="st19" points="661.74,587.2 687.9,553.66 712.53,587.2 		"/>
		<g>
			<g>
				<rect x="528.98" y="607.38" class="st19" width="8.87" height="4.47"/>
				<rect x="528.98" y="571.63" class="st19" width="8.87" height="4.47"/>
				<polygon class="st19" points="528.46,571.63 538.35,571.63 538.35,571.63 528.46,571.63 				"/>
				<polygon class="st19" points="523.74,486.73 543.08,486.73 538.47,509.07 528.34,509.07 				"/>
				<polygon class="st0" points="528.11,486.73 538.71,486.73 536.19,509.07 530.63,509.07 				"/>
				<polygon class="st19" points="529.76,571.63 537.05,571.63 539.13,611.85 527.68,611.85 				"/>
				<polygon class="st19" points="536.39,571.63 530.43,571.63 531.28,509.07 535.54,509.07 				"/>
				<rect x="522.33" y="482.26" class="st19" width="22.16" height="4.47"/>
				<rect x="528.98" y="482.26" class="st19" width="8.87" height="4.47"/>
			</g>
			<g>
				<rect x="753.26" y="607.38" class="st19" width="13.3" height="4.47"/>
				<rect x="753.26" y="571.63" class="st19" width="13.3" height="4.47"/>
				<polygon class="st19" points="754.97,571.63 764.86,571.63 764.86,571.63 754.97,571.63 				"/>
				<polygon class="st19" points="750.24,486.73 769.58,486.73 764.98,509.07 754.85,509.07 				"/>
				<polygon class="st0" points="754.61,486.73 765.21,486.73 762.69,509.07 757.14,509.07 				"/>
				<polygon class="st19" points="756.27,571.63 763.56,571.63 765.64,611.85 754.19,611.85 				"/>
				<polygon class="st19" points="762.89,571.63 756.94,571.63 757.79,509.07 762.04,509.07 				"/>
				<rect x="744.4" y="482.26" class="st19" width="31.03" height="4.47"/>
				<rect x="753.26" y="482.26" class="st19" width="13.3" height="4.47"/>
			</g>
			<g>
				<rect x="298.84" y="607.38" class="st19" width="13.3" height="4.47"/>
				<rect x="301.1" y="570.42" class="st19" width="8.79" height="4.43"/>
				<polygon class="st19" points="300.55,571.63 310.44,571.63 310.44,571.63 300.55,571.63 				"/>
				<polygon class="st19" points="295.82,486.73 315.16,486.73 310.56,509.07 300.43,509.07 				"/>
				<polygon class="st0" points="300.19,486.73 310.79,486.73 308.27,509.07 302.71,509.07 				"/>
				<polygon class="st19" points="301.85,571.63 309.13,571.63 311.22,611.85 299.77,611.85 				"/>
				<polygon class="st19" points="308.47,571.63 302.51,571.63 303.36,509.07 307.62,509.07 				"/>
				<rect x="294.41" y="482.26" class="st19" width="22.16" height="4.47"/>
				<rect x="298.84" y="482.26" class="st19" width="13.3" height="4.47"/>
			</g>
			<g>
				<rect x="63.62" y="607.38" class="st19" width="26.6" height="4.47"/>
				<rect x="72.53" y="570.42" class="st19" width="8.79" height="4.43"/>
				<polygon class="st19" points="71.97,571.63 81.86,571.63 81.86,571.63 71.97,571.63 				"/>
				<polygon class="st19" points="67.25,486.73 86.59,486.73 81.98,509.07 71.85,509.07 				"/>
				<polygon class="st0" points="71.62,486.73 82.22,486.73 79.7,509.07 74.14,509.07 				"/>
				<polygon class="st19" points="73.27,571.63 80.56,571.63 82.64,611.85 71.19,611.85 				"/>
				<polygon class="st19" points="79.9,571.63 73.94,571.63 74.79,509.07 79.05,509.07 				"/>
				<rect x="63.62" y="482.26" class="st19" width="26.59" height="4.47"/>
				<rect x="65.84" y="482.26" class="st19" width="22.16" height="4.47"/>
			</g>
			<g>
				<rect x="1208.17" y="607.38" class="st19" width="17.73" height="4.47"/>
				<rect x="1212.64" y="570.42" class="st19" width="8.79" height="4.43"/>
				<polygon class="st19" points="1212.09,571.63 1221.98,571.63 1221.98,571.63 1212.09,571.63 				"/>
				<polygon class="st19" points="1207.36,486.73 1226.7,486.73 1222.1,509.07 1211.97,509.07 				"/>
				<polygon class="st0" points="1211.73,486.73 1222.33,486.73 1219.81,509.07 1214.26,509.07 				"/>
				<polygon class="st19" points="1213.39,571.63 1220.68,571.63 1222.76,611.85 1211.31,611.85 				"/>
				<polygon class="st19" points="1220.01,571.63 1214.05,571.63 1214.91,509.07 1219.16,509.07 				"/>
				<rect x="1201.52" y="482.26" class="st19" width="31.03" height="4.47"/>
				<rect x="1210.38" y="482.26" class="st19" width="13.3" height="4.47"/>
			</g>
			<g>
				<rect x="1663.9" y="607.38" class="st19" width="17.73" height="4.47"/>
				<rect x="1668.37" y="570.42" class="st19" width="8.79" height="4.43"/>
				<polygon class="st19" points="1667.82,571.63 1677.71,571.63 1677.71,571.63 1667.82,571.63 				"/>
				<polygon class="st19" points="1663.09,486.73 1682.43,486.73 1677.83,509.07 1667.7,509.07 				"/>
				<polygon class="st0" points="1667.46,486.73 1678.06,486.73 1675.54,509.07 1669.99,509.07 				"/>
				<polygon class="st19" points="1669.12,571.63 1676.41,571.63 1678.49,611.85 1667.04,611.85 				"/>
				<polygon class="st19" points="1675.74,571.63 1669.78,571.63 1670.63,509.07 1674.89,509.07 				"/>
				<rect x="1659.46" y="482.26" class="st19" width="26.6" height="4.47"/>
				<rect x="1666.11" y="482.26" class="st19" width="13.3" height="4.47"/>
			</g>
			<g>
				<rect x="1437.96" y="607.38" class="st19" width="13.3" height="4.47"/>
				<rect x="1440.21" y="570.42" class="st19" width="8.79" height="4.43"/>
				<polygon class="st19" points="1439.66,571.63 1449.55,571.63 1449.55,571.63 1439.66,571.63 				"/>
				<polygon class="st19" points="1434.93,486.73 1454.27,486.73 1449.67,509.07 1439.54,509.07 				"/>
				<polygon class="st0" points="1439.3,486.73 1449.9,486.73 1447.38,509.07 1441.83,509.07 				"/>
				<polygon class="st19" points="1440.96,571.63 1448.25,571.63 1450.33,611.85 1438.88,611.85 				"/>
				<polygon class="st19" points="1447.58,571.63 1441.63,571.63 1442.48,509.07 1446.73,509.07 				"/>
				<rect x="1433.52" y="482.26" class="st19" width="22.16" height="4.47"/>
				<rect x="1440.17" y="482.26" class="st19" width="8.86" height="4.47"/>
			</g>
			<g>
				<rect x="1891.04" y="607.38" class="st19" width="17.73" height="4.47"/>
				<rect x="1895.23" y="570.42" class="st19" width="9.34" height="4.43"/>
				<polygon class="st19" points="1894.96,571.63 1904.85,571.63 1904.85,571.63 1894.96,571.63 				"/>
				<polygon class="st19" points="1890.23,486.73 1909.57,486.73 1904.97,509.07 1894.84,509.07 				"/>
				<polygon class="st0" points="1894.6,486.73 1905.2,486.73 1902.68,509.07 1897.13,509.07 				"/>
				<polygon class="st19" points="1896.26,571.63 1903.55,571.63 1905.63,611.85 1894.18,611.85 				"/>
				<polygon class="st19" points="1902.88,571.63 1896.93,571.63 1897.78,509.07 1902.03,509.07 				"/>
				<rect x="1886.6" y="482.26" class="st19" width="26.6" height="4.47"/>
				<rect x="1893.25" y="482.26" class="st19" width="13.3" height="4.47"/>
			</g>
			<g>
				<rect x="979.92" y="607.38" class="st19" width="17.73" height="4.47"/>
				<rect x="984.39" y="570.42" class="st19" width="8.79" height="4.43"/>
				<polygon class="st19" points="983.84,571.63 993.73,571.63 993.73,571.63 983.84,571.63 				"/>
				<polygon class="st19" points="979.11,486.73 998.45,486.73 993.85,509.07 983.72,509.07 				"/>
				<polygon class="st0" points="983.48,486.73 994.08,486.73 991.56,509.07 986.01,509.07 				"/>
				<polygon class="st19" points="985.14,571.63 992.43,571.63 994.51,611.85 983.06,611.85 				"/>
				<polygon class="st19" points="991.76,571.63 985.81,571.63 986.66,509.07 990.91,509.07 				"/>
				<rect x="971.05" y="482.26" class="st19" width="35.46" height="4.47"/>
				<rect x="982.13" y="482.26" class="st19" width="13.3" height="4.47"/>
			</g>
		</g>
		<g>
			<g>
				<path class="st19" d="M1713.79,589.83c0,6.2-5.31,11.21-11.82,11.21c-6.57,0-11.85-5.01-11.85-11.21
					c0-6.2,5.28-11.22,11.85-11.22C1708.49,578.61,1713.79,583.63,1713.79,589.83z"/>
				<rect x="1700.6" y="594.36" class="st19" width="2.72" height="20.69"/>
			</g>
			<g>
				<path class="st19" d="M1834.27,589.45c0,6.18-5.31,11.21-11.84,11.21c-6.55,0-11.84-5.02-11.84-11.21
					c0-6.22,5.29-11.21,11.84-11.21C1828.96,578.24,1834.27,583.23,1834.27,589.45z"/>
				<rect x="1821.07" y="593.97" class="st19" width="2.72" height="20.71"/>
			</g>
			<g>
				<path class="st19" d="M1804.15,589.45c0,6.18-5.31,11.21-11.82,11.21c-6.56,0-11.85-5.02-11.85-11.21
					c0-6.22,5.29-11.21,11.85-11.21C1798.84,578.24,1804.15,583.23,1804.15,589.45z"/>
				<rect x="1790.94" y="593.97" class="st19" width="2.74" height="20.71"/>
			</g>
			<g>
				<path class="st19" d="M1774.03,589.45c0,6.18-5.31,11.21-11.84,11.21c-6.56,0-11.84-5.02-11.84-11.21
					c0-6.22,5.29-11.21,11.84-11.21C1768.72,578.24,1774.03,583.23,1774.03,589.45z"/>
				<rect x="1760.82" y="593.97" class="st19" width="2.73" height="20.71"/>
			</g>
			<g>
				<path class="st19" d="M1743.92,589.45c0,6.18-5.33,11.21-11.84,11.21c-6.55,0-11.85-5.02-11.85-11.21
					c0-6.22,5.3-11.21,11.85-11.21C1738.6,578.24,1743.92,583.23,1743.92,589.45z"/>
				<rect x="1730.7" y="593.97" class="st19" width="2.74" height="20.71"/>
			</g>
		</g>
		<g>
			<path class="st19" d="M490.6,577.4c0,15.61-13.39,28.29-29.84,28.29c-16.55,0-29.89-12.67-29.89-28.29
				c0-15.63,13.34-28.29,29.89-28.29C477.21,549.11,490.6,561.77,490.6,577.4z"/>
			<rect x="457.28" y="588.8" class="st19" width="6.89" height="30.83"/>
		</g>
		<g>
			<rect x="1041.01" y="571.63" class="st19" width="4.43" height="40.22"/>
			<rect x="1045.44" y="576.1" class="st19" width="17.73" height="4.47"/>
			<polygon class="st19" points="1070.31,602.91 1049.88,602.91 1049.88,571.63 1073.89,571.63 			"/>
			<polygon class="st19" points="1041.01,607.75 1070.92,610.93 1071.88,611.85 1041.01,611.85 			"/>
		</g>
	</g>
	<polygon class="st1" points="1624.56,378.61 1624.56,359.79 1607.91,359.79 1607.91,352.54 1603.74,352.54 1603.74,341.61 
		1603.74,314.61 1611.25,314.61 1611.25,293.08 1618.19,293.08 1618.19,277.98 1611.25,277.98 1611.25,266.51 1620.05,266.51 
		1620.05,251.4 1611.25,251.4 1611.25,239.93 1620.05,239.93 1620.05,224.83 1611.25,224.83 1611.25,213.36 1618.19,213.36 
		1618.19,198.24 1611.25,198.24 1611.25,169.79 1603.74,169.79 1603.74,153.01 1591.14,148.24 1591.14,169.79 1589.11,169.79 
		1576.74,105.55 1573.3,105.55 1573.3,341.61 1591.14,341.61 1591.14,352.54 1573.3,352.54 1573.3,608.78 1624.56,608.78 
		1624.56,557.68 1643.04,557.68 1643.04,378.61 	"/>
</g>
</svg>
