<?xml version="1.0" encoding="utf-8"?>
<!-- Generator: Adobe Illustrator 24.1.2, SVG Export Plug-In . SVG Version: 6.00 Build 0)  -->
<svg version="1.1" id="Layer_1" xmlns="http://www.w3.org/2000/svg" xmlns:xlink="http://www.w3.org/1999/xlink" x="0px" y="0px"
	 viewBox="0 0 216 216" style="enable-background:new 0 0 216 216;" xml:space="preserve">
<style type="text/css">
	.st0{fill:#F2F2F3;}
	.st1{fill:#BDBEBF;}
	.st2{fill:#939598;}
	.st3{fill:#F6CDAF;}
	.st4{opacity:0.15;fill:#424143;}
	.st5{fill:#D2D3D4;}
	.st6{opacity:0.15;fill:#424142;}
	.st7{opacity:0.31;fill:#424142;}
	.st8{fill:#BDBEC0;}
	.st9{fill:#815944;}
	.st10{fill:#231F20;}
	.st11{fill:#666766;}
	.st12{fill:#E6E7E7;}
</style>
<g>
	
		<ellipse transform="matrix(0.7071 -0.7071 0.7071 0.7071 -44.7723 107.867)" class="st0" cx="107.82" cy="107.98" rx="60.01" ry="60.01"/>
	<path class="st1" d="M107.82,168.9c-33.59,0-60.92-27.33-60.92-60.92s27.33-60.92,60.92-60.92s60.92,27.33,60.92,60.92
		S141.41,168.9,107.82,168.9z M107.82,48.87c-32.59,0-59.11,26.52-59.11,59.11c0,32.59,26.52,59.11,59.11,59.11
		c32.59,0,59.11-26.52,59.11-59.11C166.93,75.38,140.41,48.87,107.82,48.87z"/>
	<g>
		<path class="st2" d="M94.77,122.25c0,0,2.2-1.8,13.05-1.8s13.05,1.8,13.05,1.8v5.49l-22.71-0.75l-3.18-0.03L94.77,122.25z"/>
		<g>
			<g>
				<polygon class="st3" points="119.06,116.27 107.82,116.27 96.58,116.27 95.7,142.97 107.82,142.97 119.94,142.97 				"/>
			</g>
			<polygon class="st4" points="119.52,130.24 119.06,116.27 107.82,116.27 96.58,116.27 96.54,117.66 			"/>
		</g>
		<path class="st5" d="M107.82,167.09c17.29,0,32.86-7.46,43.68-19.33l-0.78-6.28c-4.32-14.06-31.49-16.28-31.49-16.28l-5.97,1.26
			l-5.44,0.91l-5.5-1.18l-5.91-0.99c0,0-27.16,2.22-31.49,16.28l-0.78,6.28C74.96,159.63,90.54,167.09,107.82,167.09z"/>
		<g>
			<path class="st3" d="M127.95,89.54c0,0,1.64-2.8,2.96-0.91c1.32,1.89-0.91,7.55-3.32,9.52L127.95,89.54z"/>
			<path class="st6" d="M128.3,90.24c0-0.41,0-0.81,0.01-1.21c-0.22,0.28-0.35,0.5-0.35,0.5l-0.36,8.61
				c0.13-0.11,0.26-0.23,0.39-0.36c0.2-1.57,0.3-3.18,0.3-4.82C128.29,92.05,128.29,91.14,128.3,90.24z"/>
		</g>
		<g>
			<path class="st3" d="M87.69,89.54c0,0-1.64-2.8-2.96-0.91c-1.32,1.89,0.91,7.55,3.32,9.52L87.69,89.54z"/>
			<path class="st6" d="M87.35,90.24c0-0.41,0-0.81-0.01-1.21c0.22,0.28,0.35,0.5,0.35,0.5l0.36,8.61
				c-0.13-0.11-0.26-0.23-0.39-0.36c-0.2-1.57-0.3-3.18-0.3-4.82C87.36,92.05,87.35,91.14,87.35,90.24z"/>
		</g>
		<ellipse class="st3" cx="107.82" cy="92.97" rx="20.21" ry="28.04"/>
		<path class="st7" d="M101.76,126.2l-4.97-0.83c0,0-0.76,0.06-2.02,0.23l-0.3,1.25c0,0,0.16,8.76,9.88,9.81l4.1-8.6
			C108.46,128.05,105.16,127.36,101.76,126.2z"/>
		<g>
			<path class="st7" d="M112.98,136.48c9.72-1.05,9.88-9.81,9.88-9.81l-0.25-1.06c-2.07-0.31-3.37-0.42-3.37-0.42l-3.21,0.67
				c-3.55,1.26-7.14,2.01-7.14,2.01L112.98,136.48z"/>
			<path class="st8" d="M107.82,127.36c0,0,9.89-2.05,13.05-5.12l0.93,3.9c0,0-0.16,8.76-9.88,9.81L107.82,127.36z"/>
		</g>
		<path class="st9" d="M116.4,64.1c-8.97-1.41-21.27-1.82-20.93,3.25c0,0,0,0.01,0,0.01C89.89,65.77,85,70.19,84.6,77.28
			c-0.45,8.02,4.34,12.51,4.34,12.51c-0.87-14.86,8.75-21.51,8.75-21.51s10,1.09,12.58,10.75c0.49,1.82,6.62-4.5,15.31,9.36
			c0,0,3.75-0.67,4.33-6.01C130.49,77.04,126.06,65.62,116.4,64.1z"/>
		<path class="st10" d="M126.98,86.68c-1.22-0.62-7.93-1.38-12.32-0.56c-4.36,0.82-6.83,1.02-6.83,1.02s-2.47-0.2-6.84-1.02
			c-4.39-0.82-11.1-0.06-12.32,0.56c-0.66,0.34-1.65,0.64-1.65,0.64l0.47,1.78c0,0,0.62-0.38,1.1,0.86
			c0.48,1.25,0.72,8.35,8.11,9.31c7.39,0.96,9.44-5.77,10.02-9.59c0.01-0.32,0.19-0.24,1.1-0.24c0.91,0,1.09-0.08,1.1,0.24
			c0.59,3.83,2.64,10.55,10.02,9.59c7.39-0.96,7.63-8.06,8.11-9.31s1.1-0.86,1.1-0.86l0.47-1.78
			C128.63,87.33,127.64,87.02,126.98,86.68z M98.58,98.33c-9.75-0.11-7.96-8.75-7.96-8.75c0.54-3.62,14.72-3.01,14.97,0.12
			C105.85,92.82,102.94,98.33,98.58,98.33z M117.06,98.33c-4.35,0-7.27-5.5-7.01-8.63c0.25-3.13,14.43-3.73,14.97-0.12
			C125.02,89.58,126.81,98.22,117.06,98.33z"/>
		<g>
			<polygon class="st11" points="107.82,127.36 104.65,134.02 107.82,136.57 110.99,134.02 			"/>
			<path class="st11" d="M110.99,141.55l-1.58-6.26l-1.58,1.28l-1.58-1.28l-1.58,6.26l-0.6,11.24l-0.57,14.13
				c1.44,0.11,2.88,0.18,4.35,0.18c1.46,0,2.91-0.07,4.35-0.18l-0.57-14.13h0L110.99,141.55z"/>
			<polygon class="st7" points="106.24,135.29 107.71,137.32 109.75,136.64 109.41,135.29 107.82,136.57 			"/>
		</g>
		<g>
			<path class="st8" d="M107.82,127.36c0,0-9.89-2.05-13.05-5.12l-0.93,3.9c0,0,0.16,8.76,9.88,9.81L107.82,127.36z"/>
			<polygon class="st7" points="104.65,134.02 104.94,134.25 107.82,127.36 			"/>
		</g>
		<g>
			<path class="st8" d="M119.73,148.18l0,9.7l7.7,2.07l7.7-2.07v-9.7H119.73z M134.68,157.53l-7.25,1.95l-7.26-1.95l0-6.34h14.51
				V157.53z"/>
			<g>
				<path class="st12" d="M128.4,149.69c0,0.54-0.44,0.97-0.97,0.97c-0.54,0-0.97-0.44-0.97-0.97c0-0.54,0.44-0.97,0.97-0.97
					C127.97,148.72,128.4,149.15,128.4,149.69z"/>
				<circle class="st2" cx="127.87" cy="149.69" r="0.24"/>
				<path class="st2" d="M127.23,149.69c0,0.14-0.11,0.24-0.24,0.24c-0.14,0-0.24-0.11-0.24-0.24s0.11-0.24,0.24-0.24
					C127.12,149.45,127.23,149.55,127.23,149.69z"/>
				<path class="st2" d="M127.43,149.89c-0.14,0-0.24,0.11-0.24,0.24s0.11,0.24,0.24,0.24c0.14,0,0.24-0.11,0.24-0.24
					S127.56,149.89,127.43,149.89z"/>
				<path class="st2" d="M127.43,149.49c-0.14,0-0.24-0.11-0.24-0.24s0.11-0.24,0.24-0.24c0.14,0,0.24,0.11,0.24,0.24
					S127.56,149.49,127.43,149.49z"/>
			</g>
		</g>
	</g>
</g>
</svg>
