<?xml version="1.0" encoding="utf-8"?>
<!-- Generator: Adobe Illustrator 24.1.2, SVG Export Plug-In . SVG Version: 6.00 Build 0)  -->
<svg version="1.1" id="Layer_1" xmlns="http://www.w3.org/2000/svg" xmlns:xlink="http://www.w3.org/1999/xlink" x="0px" y="0px"
	 viewBox="0 0 216 216" style="enable-background:new 0 0 216 216;" xml:space="preserve">
<style type="text/css">
	.st0{fill:#F2F2F3;}
	.st1{fill:#B58856;}
	.st2{opacity:0.15;fill:#424143;}
	.st3{fill:#231F20;}
	.st4{fill:#8F4187;}
	.st5{fill:#FFFFFF;}
	.st6{fill:#542656;}
	.st7{fill:#733273;}
	.st8{fill:#BDBEBF;}
</style>
<g>
	
		<ellipse transform="matrix(0.157 -0.9876 0.9876 0.157 -15.7468 197.5092)" class="st0" cx="107.82" cy="107.98" rx="60.01" ry="60.01"/>
	<g>
		<path class="st1" d="M123.88,130.67c0,0-0.29-4.76-1.49-5.28c0,0-3.17,0.5-3.82-4.45v0l-0.15-4.46h-10.6h-10.6l-0.15,4.46v0
			c-0.65,4.95-3.82,4.45-3.82,4.45c-1.2,0.52-1.49,5.28-1.49,5.28h4.99l-0.36,10.99h11.43h0h11.43l-0.36-10.99H123.88z"/>
		<path class="st2" d="M122.39,125.39c0,0-3.17,0.5-3.82-4.45v0l-0.15-4.46h-10.6h-10.6l-0.06,1.95l22.36,12.24h4.36
			C123.88,130.67,123.59,125.91,122.39,125.39z"/>
	</g>
	<g>
		<g>
			<path class="st1" d="M126.8,91.27c0,0,1.55-2.64,2.79-0.86c1.24,1.78-0.86,7.13-3.13,8.98L126.8,91.27z"/>
			<path class="st2" d="M127.15,91.94c0-0.39,0-0.78,0.01-1.17c-0.22,0.27-0.35,0.5-0.35,0.5l-0.34,8.12
				c0.13-0.11,0.26-0.23,0.39-0.36c0.18-1.47,0.28-2.98,0.28-4.53C127.14,93.64,127.14,92.78,127.15,91.94z"/>
		</g>
		<g>
			<path class="st1" d="M88.84,91.27c0,0-1.55-2.64-2.79-0.86c-1.24,1.78,0.86,7.13,3.13,8.98L88.84,91.27z"/>
			<path class="st2" d="M88.49,91.94c0-0.39,0-0.78-0.01-1.17c0.22,0.27,0.35,0.5,0.35,0.5l0.34,8.12
				c-0.13-0.11-0.26-0.23-0.39-0.36c-0.18-1.47-0.28-2.98-0.28-4.53C88.5,93.64,88.5,92.78,88.49,91.94z"/>
		</g>
		<ellipse class="st1" cx="107.82" cy="94.5" rx="19.07" ry="26.44"/>
		<path class="st3" d="M113.72,118.33c-2.58-1.38-5.9-1.05-5.9-1.05s-3.32-0.33-5.9,1.05c0,0-7.85-2.71-12.82-18.88
			c1.67,12.24,9.41,21.5,18.72,21.5s17.05-9.26,18.72-21.5C121.57,115.62,113.72,118.33,113.72,118.33z"/>
		<path class="st3" d="M107.82,68.06c-12.96,0-17.15,4.77-18.48,11.99c3.91-9.67,9.21-10.3,13.05-10.07
			c0.17,2.35,5.43,3.15,5.43,3.15s5.26-0.8,5.43-3.15c3.84-0.23,9.14,0.41,13.05,10.07C124.97,72.83,120.78,68.06,107.82,68.06z"/>
	</g>
	<path class="st3" d="M125.89,88.97c-1.15-0.58-7.48-1.3-11.62-0.53c-4.11,0.77-6.44,0.96-6.45,0.96c0,0-2.33-0.19-6.45-0.96
		c-4.14-0.77-10.47-0.06-11.62,0.53c-0.62,0.32-1.98,1.07-1.98,1.07l0.9,1.02c0,0,0.24,0.01,1,1.01c0.92,1.2-0.33,4.95,7.65,5.2
		c5.95,0.19,9.65-1.67,9.46-5.47c0.01-0.31,0.18-0.23,1.04-0.23h0h0c0.86,0,1.03-0.08,1.04,0.23c-0.19,3.81,3.5,5.66,9.46,5.47
		c7.98-0.25,6.73-4,7.65-5.2c0.77-1,1-1.01,1-1.01l0.9-1.02C127.87,90.04,126.51,89.29,125.89,88.97z M99.11,96.38
		c-10.28,0.18-7.51-4.68-7.51-4.68c2.18-3.92,14.13-2.85,14.12,0.11C105.72,95.08,101.72,96.33,99.11,96.38z M116.53,96.38
		c-2.61-0.05-6.61-1.3-6.62-4.57c0-2.96,11.94-4.02,14.12-0.11C124.04,91.7,126.82,96.56,116.53,96.38z"/>
	<path class="st4" d="M107.82,167.99c17.04,0,32.4-7.11,43.33-18.51c-0.34-3.95-1.86-9.22-1.86-9.22
		c-3.1-10.07-19.61-13.7-26.9-14.87c0.14,0.35,0.23,0.71,0.23,1.08c0,3.51-6.62,6.36-14.8,6.36c-8.17,0-14.8-2.85-14.8-6.36
		c0-0.37,0.09-0.73,0.23-1.08c-7.29,1.17-23.8,4.79-26.9,14.87c0,0-1.53,5.27-1.86,9.22C75.42,160.88,90.78,167.99,107.82,167.99z"
		/>
	<path class="st5" d="M149.68,148.78c-0.4-3.46-1.59-7.7-1.72-8.19c-2.59-8.41-15.97-12.08-23.71-13.51l-0.19-0.03
		c0,0.09-0.01,0.15-0.01,0.15c-0.02,0.12-0.06,0.23-0.09,0.34l0.19,0.03c7.63,1.41,20.81,5,23.33,13.17
		c0.13,0.47,1.31,4.68,1.71,8.09l0.25,2.15l0.5-0.06L149.68,148.78z"/>
	<path class="st5" d="M148.81,149.77c-0.4-3.46-1.59-7.72-1.73-8.21c-2.55-8.29-15.43-11.99-23.27-13.5
		c-0.09,0.24-0.2,0.47-0.34,0.7c7.65,1.45,20.44,5.03,22.9,13.02c0.13,0.47,1.31,4.67,1.7,8.07l0.25,2.15l0.74-0.09L148.81,149.77z"
		/>
	<path class="st5" d="M65.96,148.78c0.4-3.46,1.59-7.7,1.72-8.19c2.59-8.41,15.97-12.08,23.71-13.51l0.19-0.03
		c0,0.09,0.01,0.15,0.01,0.15c0.02,0.12,0.06,0.23,0.09,0.34l-0.19,0.03c-7.63,1.41-20.81,5-23.33,13.17
		c-0.13,0.47-1.31,4.68-1.71,8.09l-0.25,2.15l-0.5-0.06L65.96,148.78z"/>
	<path class="st5" d="M66.83,149.77c0.4-3.46,1.59-7.72,1.73-8.21c2.55-8.29,15.43-11.99,23.27-13.5c0.09,0.24,0.2,0.47,0.34,0.7
		c-7.65,1.45-20.44,5.03-22.9,13.02c-0.13,0.47-1.31,4.67-1.7,8.07L67.33,152l-0.74-0.09L66.83,149.77z"/>
	<path class="st6" d="M124.55,127.23c0-0.03,0.03-0.74-0.03-1.47c-0.77-0.14-1.49-0.27-2.14-0.37c0.14,0.35,0.23,0.71,0.23,1.08
		c0,3.51-6.62,6.36-14.8,6.36c-8.17,0-14.8-2.85-14.8-6.36c0-0.37,0.09-0.73,0.23-1.08c-0.64,0.1-1.36,0.23-2.12,0.37
		c-0.07,0.73-0.03,1.44-0.03,1.53c0.77,4.44,7.64,7.55,16.72,7.55C116.9,134.84,123.78,131.73,124.55,127.23z"/>
	<path class="st7" d="M124.05,127.2c0,0,0.04-0.79-0.04-1.53c-0.58-0.1-1.12-0.2-1.62-0.28c0.14,0.35,0.23,0.71,0.23,1.08
		c0,3.51-6.62,6.36-14.8,6.36c-8.17,0-14.8-2.85-14.8-6.36c0-0.37,0.09-0.73,0.23-1.08c-0.5,0.08-1.04,0.17-1.61,0.27
		c-0.08,0.74-0.04,1.54-0.04,1.54c0.71,4.11,7.45,7.13,16.23,7.13C116.61,134.34,123.34,131.32,124.05,127.2z"/>
	<g>
		<path class="st7" d="M107.83,134.84c-0.78,0-1.53-0.03-2.28-0.08v33.18c0.76,0.02,1.51,0.05,2.27,0.05c0.76,0,1.51-0.03,2.27-0.05
			v-33.18C109.35,134.81,108.6,134.84,107.83,134.84z"/>
		<g>
			<circle class="st5" cx="107.83" cy="140.17" r="1.5"/>
			<circle class="st7" cx="107.13" cy="140.17" r="0.25"/>
			<circle class="st7" cx="108.53" cy="140.17" r="0.25"/>
		</g>
		<g>
			<circle class="st5" cx="107.83" cy="150.5" r="1.5"/>
			<circle class="st7" cx="107.13" cy="150.5" r="0.25"/>
			<circle class="st7" cx="108.53" cy="150.5" r="0.25"/>
		</g>
		<g>
			<circle class="st5" cx="107.83" cy="160.83" r="1.5"/>
			<circle class="st7" cx="107.13" cy="160.83" r="0.25"/>
			<circle class="st7" cx="108.53" cy="160.83" r="0.25"/>
		</g>
	</g>
	<path class="st8" d="M107.82,168.9c-33.59,0-60.92-27.33-60.92-60.92s27.33-60.92,60.92-60.92s60.92,27.33,60.92,60.92
		S141.41,168.9,107.82,168.9z M107.82,48.87c-32.59,0-59.11,26.52-59.11,59.11c0,32.59,26.52,59.11,59.11,59.11
		c32.59,0,59.11-26.52,59.11-59.11C166.93,75.38,140.41,48.87,107.82,48.87z"/>
</g>
</svg>
