<?xml version="1.0" encoding="utf-8"?>
<!-- Generator: Adobe Illustrator 24.1.2, SVG Export Plug-In . SVG Version: 6.00 Build 0)  -->
<svg version="1.1" id="Layer_1" xmlns="http://www.w3.org/2000/svg" xmlns:xlink="http://www.w3.org/1999/xlink" x="0px" y="0px"
	 viewBox="0 0 216 216" style="enable-background:new 0 0 216 216;" xml:space="preserve">
<style type="text/css">
	.st0{fill:#F2F2F3;}
	.st1{fill:#F6CDAF;}
	.st2{opacity:0.15;fill:#424143;}
	.st3{fill:#2A384B;}
	.st4{opacity:0.5;fill:#231F20;}
	.st5{fill:#FFFFFF;}
	.st6{fill:#BDBEBF;}
	.st7{fill:#E29425;}
</style>
<g>
	
		<ellipse transform="matrix(0.7071 -0.7071 0.7071 0.7071 -44.7723 107.867)" class="st0" cx="107.82" cy="107.98" rx="60.01" ry="60.01"/>
	<g>
		<path class="st1" d="M122.33,132.47c-1.42-0.55-4.92-2-6.13-5.37c-0.26-0.9-0.33-2.09-0.35-2.69l-0.01-0.38v0v0l-0.18-9.05h-7.85
			h-7.85l-0.18,9.05l0,0v0l-0.01,0.38c-0.02,0.6-0.09,1.79-0.35,2.69c-1.21,3.37-4.71,4.82-6.13,5.37
			c-1.58,0.62,0.16,3.33,0.16,3.33l3.83,1.84l2.21,1.03l0,0l-0.15,7.79h8.46h8.46l-0.15-7.79v0l2.21-1.03l3.83-1.84
			C122.17,135.8,123.91,133.09,122.33,132.47z"/>
		<path class="st2" d="M122.33,132.47c-1.42-0.55-4.92-2-6.13-5.37c-0.26-0.9-0.33-2.09-0.35-2.69l-0.01-0.38v0v0l-0.18-9.05h-7.85
			h-7.85l-0.17,8.83l22.12,12.11l0.26-0.12C122.17,135.8,123.91,133.09,122.33,132.47z"/>
	</g>
	<g>
		<path class="st3" d="M107.82,167.99c14.49,0,27.79-5.14,38.16-13.69l0.75-0.63c-0.12-0.64-1.78-15.99-14.81-18.57
			c-4.37-0.87-8.17-2.05-10.69-3.1c-1.97,4.82-7.79,7.78-13.41,7.78c-5.62,0-11.44-2.96-13.41-7.78c-2.52,1.04-6.32,2.23-10.69,3.1
			c-13.03,2.58-14.52,17.59-14.76,18.48l0.61,0.64C79.96,162.82,93.28,167.99,107.82,167.99z"/>
		<g>
			<g>
				<path class="st4" d="M115.61,146.69c5.44-0.92,10.67-7.07,11.44-8.42c0.66-1.15,1.81-3.3,1.35-3.96
					c-2.65-0.67-4.95-1.42-6.71-2.12c-0.17,0.22-0.54,0.59-1.09,1.08c-1.97,3.34-5.87,5.59-10.04,6.29
					c-0.67,0.27-1.34,0.52-2.03,0.74C108.52,140.29,110.17,147.6,115.61,146.69z"/>
				<path class="st5" d="M107.82,139.79c0,0,1.65,7.31,7.09,6.4s10.67-7.07,11.44-8.42c0.72-1.26,2.06-3.75,1.19-4.12
					c-0.88-0.38-5.89-2.9-6.48-2.04C120.47,132.46,115.66,137.46,107.82,139.79z"/>
			</g>
			<g>
				<path class="st4" d="M107.82,139.79c-5.57,0-11.34-2.91-13.35-7.66c-0.12-0.01-0.27,0.01-0.43,0.03
					c-1.02,0.41-2.22,0.83-3.57,1.25c-0.94,0.42-1.75,0.81-2.06,0.94c-0.88,0.38,0.47,2.86,1.19,4.12c0.77,1.34,6,7.5,11.44,8.42
					c4.97,0.84,6.77-5.17,7.04-6.22C107.9,140.14,107.82,139.79,107.82,139.79z"/>
				<path class="st5" d="M107.82,139.79c0,0-1.65,7.31-7.09,6.4s-10.67-7.07-11.44-8.42c-0.72-1.26-2.06-3.75-1.19-4.12
					s5.89-2.9,6.48-2.04C95.17,132.46,99.98,137.46,107.82,139.79z"/>
			</g>
		</g>
	</g>
	<path class="st6" d="M107.82,168.9c-33.59,0-60.92-27.33-60.92-60.92s27.33-60.92,60.92-60.92s60.92,27.33,60.92,60.92
		S141.41,168.9,107.82,168.9z M107.82,48.87c-32.59,0-59.11,26.52-59.11,59.11c0,32.59,26.52,59.11,59.11,59.11
		c32.59,0,59.11-26.52,59.11-59.11C166.93,75.38,140.41,48.87,107.82,48.87z"/>
	<g>
		<path class="st1" d="M126.08,94.11c0,0,1.65-2.83,2.99-0.92c1.33,1.91-0.92,7.63-3.35,9.61L126.08,94.11z"/>
		<ellipse class="st1" cx="107.82" cy="97.97" rx="18.51" ry="28.31"/>
		<path class="st1" d="M89.83,94.51c0,0-1.65-2.83-2.99-0.92c-1.33,1.91,0.92,7.63,3.35,9.61L89.83,94.51z"/>
		<path class="st7" d="M130.33,86.96c-1.43-15.6-14.11-19.99-25.32-18.28C93.8,70.38,89.02,76.8,89.33,81.35c0,0,0.32-0.07,0.5-0.17
			c-0.85,1.86-1.52,4.48-1.5,8.14c0.02,4.18,0.25,5.7,0.5,6.08c0.11,4.11,0.69,7.38,0.69,7.38c0.22-4.83,0.73-8.59,1.4-11.55
			c0.23-0.9,0.72-2.46,1.55-3.54c0,0,0,0,0.01-0.01c1.48-1.9,4.48-4.34,9.38-2.48c0.22,0.1,0.44,0.23,0.66,0.39
			c0.18,0.18,0.37,0.36,0.58,0.52c0.01,0.02,0.03,0.03,0.04,0.04l0.01-0.01c3.69,2.78,11.54,2.75,16.87,9.53
			c0.3,0.46,0.69,1.21,0.89,2.26c0.22,1.83,0.39,3.86,0.5,6.14c0,0,0.4-2.23,0.59-5.33c1.94,3.76,2.37,9.6,0.8,16.5
			C122.78,115.24,131.76,102.56,130.33,86.96z"/>
	</g>
</g>
</svg>
