<?xml version="1.0" encoding="utf-8"?>
<!-- Generator: Adobe Illustrator 24.1.2, SVG Export Plug-In . SVG Version: 6.00 Build 0)  -->
<svg version="1.1" id="Layer_1" xmlns="http://www.w3.org/2000/svg" xmlns:xlink="http://www.w3.org/1999/xlink" x="0px" y="0px"
	 viewBox="0 0 216 216" style="enable-background:new 0 0 216 216;" xml:space="preserve">
<style type="text/css">
	.st0{fill:#F2F2F3;}
	.st1{fill:#F6CDAF;}
	.st2{opacity:0.15;fill:#424143;}
	.st3{fill:#5DA4DA;}
	.st4{fill:#175578;}
	.st5{fill:#2E86C1;}
	.st6{fill:#3B3A38;}
	.st7{fill:#BDBEBF;}
</style>
<g>
	<circle class="st0" cx="107.82" cy="107.98" r="60.01"/>
	<g>
		<g>
			<path class="st1" d="M118.12,147.19c2.31,0,4.28-1.66,4.66-3.94l2.14-12.66c-0.03-0.01-0.06-0.02-0.1-0.03
				c-4.81-1.09-7.05-3.21-7.05-3.21c-1.04-0.89-1.87-2.19-2-4.09v0l-0.21-10.78h-7.74h-7.74l-0.21,10.78v0
				c0.01,1.71-0.94,3.06-2.1,4.09c0,0-2.24,2.12-7.05,3.21l2.15,12.69c0.39,2.27,2.36,3.94,4.66,3.94h10.3H118.12z"/>
			<path class="st2" d="M117.78,127.35c-1.04-0.89-1.87-2.19-2-4.09v0l-0.21-10.78h-7.74h-7.74l-0.21,10.78v0
				c0,0.88-0.25,1.66-0.64,2.35l24.29,13.3l1.41-8.32c-0.03-0.01-0.06-0.02-0.1-0.03C120.02,129.47,117.78,127.35,117.78,127.35z"/>
		</g>
		<g>
			<path class="st3" d="M132.59,132.33c-2.37-0.64-5.04-1.13-7.66-1.77l-2.15,12.69c-0.39,2.27-2.36,3.94-4.66,3.94h-10.3h-10.3
				c-2.31,0-4.28-1.66-4.66-3.94l-2.15-12.69c-2.61,0.65-5.29,1.13-7.66,1.77c-11.44,3.09-14.19,7.51-14.71,18.07v2.76
				c10.55,9.23,24.36,14.84,39.48,14.84l0,0h0c15.12,0,28.93-5.61,39.48-14.84v-2.76C146.78,139.84,144.03,135.42,132.59,132.33z"/>
			<path class="st4" d="M124.75,143.58l2.13-12.57c-0.65-0.15-1.3-0.3-1.95-0.46l-2.15,12.69c-0.39,2.27-2.36,3.94-4.66,3.94h-10.3
				h-10.3c-2.31,0-4.28-1.66-4.66-3.94l-2.15-12.69c-0.65,0.16-1.3,0.31-1.95,0.46l2.13,12.57c0.55,3.25,3.34,5.61,6.64,5.61h20.6
				C121.42,149.19,124.21,146.83,124.75,143.58z"/>
			<path class="st5" d="M124.26,143.5l2.13-12.6c-0.49-0.11-0.98-0.22-1.46-0.34l-2.15,12.69c-0.39,2.27-2.36,3.94-4.66,3.94h-10.3
				h-10.3c-2.31,0-4.28-1.66-4.66-3.94l-2.15-12.69c-0.49,0.12-0.98,0.23-1.46,0.34l2.13,12.6c0.51,3.01,3.09,5.19,6.14,5.19h20.6
				C121.17,148.69,123.75,146.5,124.26,143.5z"/>
		</g>
		<g>
			<ellipse class="st1" cx="107.82" cy="96.72" rx="18.25" ry="27.92"/>
			<g>
				<path class="st1" d="M126.08,96.72c0,0.41-0.01,0.82-0.03,1.23c2.16-2.3,3.94-7.21,2.73-8.94c-1-1.43-2.19-0.15-2.69,0.54
					C126.11,91.84,126.08,94.24,126.08,96.72z"/>
				<path class="st2" d="M126.34,94.02c0.01-1.64,0.02-3.23,0-4.78c-0.09,0.11-0.18,0.22-0.25,0.31c0.03,2.29-0.01,4.69-0.01,7.17
					c0,0.41-0.01,0.82-0.03,1.23c0.09-0.09,0.17-0.2,0.26-0.3c0.01-0.31,0.03-0.62,0.03-0.93
					C126.33,95.81,126.33,94.91,126.34,94.02z"/>
			</g>
			<g>
				<path class="st1" d="M89.57,96.72c0,0.41,0.01,0.82,0.03,1.23c-2.16-2.3-3.94-7.21-2.73-8.94c1-1.43,2.19-0.15,2.69,0.54
					C89.53,91.84,89.57,94.24,89.57,96.72z"/>
				<path class="st2" d="M89.31,94.02c-0.01-1.64-0.02-3.23,0-4.78c0.09,0.11,0.18,0.22,0.25,0.31c-0.03,2.29,0.01,4.69,0.01,7.17
					c0,0.41,0.01,0.82,0.03,1.23c-0.09-0.09-0.17-0.2-0.26-0.3c-0.01-0.31-0.03-0.62-0.03-0.93C89.32,95.81,89.31,94.91,89.31,94.02
					z"/>
			</g>
			<path class="st6" d="M120.24,70c-6.31-3.83-12.42-2.01-12.42-2.01S101.71,66.17,95.4,70c-10.63,6.45-10.22,22.31-8.08,34.27
				c2.15,11.96,12.33,21.57,12.33,21.57c-10.14-13.66-7.18-30.69-4.53-35.96c2.65-5.26,12.7-4.36,12.7-4.36s10.05-0.91,12.7,4.36
				c2.65,5.26,5.61,22.3-4.53,35.96c0,0,10.18-9.61,12.33-21.57C130.46,92.31,130.87,76.45,120.24,70z"/>
		</g>
	</g>
	<path class="st7" d="M107.82,168.9c-33.59,0-60.92-27.33-60.92-60.92s27.33-60.92,60.92-60.92s60.92,27.33,60.92,60.92
		S141.41,168.9,107.82,168.9z M107.82,48.87c-32.59,0-59.11,26.52-59.11,59.11c0,32.59,26.52,59.11,59.11,59.11
		c32.59,0,59.11-26.52,59.11-59.11C166.93,75.38,140.41,48.87,107.82,48.87z"/>
</g>
</svg>
